M48
;Layer_Color=9474304
;FILE_FORMAT=4:4
METRIC,LZ
;TYPE=PLATED
T01F00S00C0.2540
T03F00S00C0.8128
;TYPE=NON_PLATED
T04F00S00C0.6500
T05F00S00C1.0000
%
T01
X00191144Y-00064212
Y-00048972
X00138566Y-00049763
X00125866
X00154568Y-00069292
X00168284Y-00081756
X00068424Y-00072912
X00055724Y-0004675
X00022196
X00009291Y-00056349
X-00005842Y-00069342
X-00019304Y-00063246
X-00026162Y-00056642
X-00034154Y-00061164
X-00040506Y-00050524
X-00053712
X-00051934Y-00072085
X-00060062Y-00081198
X-00096638Y-00063703
Y-00051003
X-0013423Y-00058369
Y-00071069
Y-00096469
X-0011899
X-00157344Y-00107137
X-00179442Y-00099517
Y-00086818
X-0019265Y-00074879
Y-0006345
Y-0005202
X-00164338Y-00059502
X-00224146Y-00063196
X-00230242Y00072695
X-00214748Y00096316
X-00155312Y00097586
X-0015027Y0005899
X-0013011
X-00167758Y00065075
X-00171314Y00044755
Y00032055
X-00185792
Y00044755
X-00176902Y00020879
X-00176648Y-00009348
X-00166116Y-00030038
Y-00042738
X-0013011Y-00017211
X-00109592Y00006147
X-00090542Y00023165
X-00058166Y00025908
X-00064262Y00006604
X-0007962Y-00005537
X-00096638Y-00038303
X-00053712Y-00039574
X-00039234Y00050089
Y00062789
X-00030598Y00072948
X00004708Y00063042
X00038744Y00056185
X00116468Y00072441
X00119516Y0000386
X00132216
X00144916
Y00012799
X00106816Y0000386
X0008255Y-0000508
X0008548Y-00015444
X00062366Y-00026365
X00125866Y-00038812
X00138566
X00191144Y-00038049
Y-00027127
Y-00004775
X00203336Y00023672
X00199018Y0006482
T03
X0018247Y-00123966
X0020787
X0023327
X0025867
X0028407
X0015707
X0013167
X0010627
X0008087
X0005547
X0003007
X0000467
X-0002073
X-0004613
X-0007153
X-0009693
Y00126034
X-0007153
X-0004613
X-0002073
X0000467
X0003007
X0005547
X0008087
X0010627
X0013167
X0015707
X0018247
X0020787
X0023327
X0025867
X0028407
T04
X-00214119Y-00029103
Y00028697
T05
X00282584Y-00053806
Y00026194
M30
