%TF.GenerationSoftware,Altium Limited,Altium Designer,25.4.2 (15)*%
G04 Layer_Physical_Order=3*
G04 Layer_Color=16776960*
%FSLAX45Y45*%
%MOMM*%
%TF.SameCoordinates,D428E1E4-D561-4EBD-83AA-0298DF20FA0A*%
%TF.FilePolarity,Positive*%
%TF.FileFunction,Copper,L3,Inr,Signal*%
%TF.Part,Single*%
G01*
G75*
%TA.AperFunction,Conductor*%
%ADD35C,0.50800*%
%ADD38C,1.01600*%
%TA.AperFunction,ComponentPad*%
%ADD41O,2.10000X1.00000*%
%ADD42O,1.80000X1.00000*%
%ADD43C,0.65000*%
%ADD44C,1.00000*%
%ADD45C,1.52400*%
%TA.AperFunction,ViaPad*%
%ADD46C,0.66040*%
%TA.AperFunction,Conductor*%
%ADD47C,0.76200*%
G36*
X2413522Y1197484D02*
X2414000Y1197962D01*
X2427376Y1221129D01*
X2434300Y1246970D01*
Y1262885D01*
X2490500D01*
Y1247681D01*
X2497056Y1223214D01*
X2509721Y1201277D01*
X2527632Y1183366D01*
X2549568Y1170701D01*
X2574035Y1164145D01*
X2599365D01*
X2623832Y1170701D01*
X2645768Y1183366D01*
X2663679Y1201277D01*
X2676344Y1223214D01*
X2682900Y1247681D01*
Y1262885D01*
X2744500D01*
Y1247681D01*
X2751056Y1223214D01*
X2763721Y1201277D01*
X2781632Y1183366D01*
X2803568Y1170701D01*
X2828035Y1164145D01*
X2853365D01*
X2877832Y1170701D01*
X2899768Y1183366D01*
X2917679Y1201277D01*
X2930344Y1223214D01*
X2936900Y1247681D01*
Y1262885D01*
X3247478D01*
Y-1236910D01*
X3242397Y-1239015D01*
X2936900D01*
Y-1226990D01*
X2930344Y-1202523D01*
X2917679Y-1180586D01*
X2899768Y-1162676D01*
X2877832Y-1150011D01*
X2853365Y-1143455D01*
X2828035D01*
X2803568Y-1150011D01*
X2781632Y-1162676D01*
X2763721Y-1180586D01*
X2751056Y-1202523D01*
X2744500Y-1226990D01*
Y-1239015D01*
X2682900D01*
Y-1226990D01*
X2676344Y-1202523D01*
X2663679Y-1180586D01*
X2645768Y-1162676D01*
X2623832Y-1150011D01*
X2599365Y-1143455D01*
X2574035D01*
X2549568Y-1150011D01*
X2527632Y-1162676D01*
X2509721Y-1180586D01*
X2497056Y-1202523D01*
X2490500Y-1226990D01*
Y-1239015D01*
X2434300D01*
Y-1226279D01*
X2427376Y-1200439D01*
X2414000Y-1177271D01*
X2413522Y-1176792D01*
X2341680Y-1248635D01*
X2332699Y-1239655D01*
X2323719Y-1248635D01*
X2251877Y-1176793D01*
X2251400Y-1177271D01*
X2238024Y-1200439D01*
X2231100Y-1226279D01*
Y-1239015D01*
X2180300D01*
Y-1226279D01*
X2173376Y-1200439D01*
X2160000Y-1177271D01*
X2159522Y-1176792D01*
X2087680Y-1248635D01*
X2078699Y-1239655D01*
X2069719Y-1248635D01*
X1997877Y-1176793D01*
X1997400Y-1177271D01*
X1984024Y-1200439D01*
X1977100Y-1226279D01*
Y-1239015D01*
X1920900D01*
Y-1226990D01*
X1914344Y-1202523D01*
X1901679Y-1180586D01*
X1883768Y-1162676D01*
X1861832Y-1150011D01*
X1837365Y-1143455D01*
X1812035D01*
X1787568Y-1150011D01*
X1765632Y-1162676D01*
X1747721Y-1180586D01*
X1735056Y-1202523D01*
X1728500Y-1226990D01*
Y-1239015D01*
X1666900D01*
Y-1226990D01*
X1660344Y-1202523D01*
X1647679Y-1180586D01*
X1629768Y-1162676D01*
X1607832Y-1150011D01*
X1583365Y-1143455D01*
X1558035D01*
X1533568Y-1150011D01*
X1511632Y-1162676D01*
X1493721Y-1180586D01*
X1481056Y-1202523D01*
X1474500Y-1226990D01*
Y-1239015D01*
X1412900D01*
Y-1226990D01*
X1406344Y-1202523D01*
X1393679Y-1180586D01*
X1375768Y-1162676D01*
X1353832Y-1150011D01*
X1329365Y-1143455D01*
X1304035D01*
X1279568Y-1150011D01*
X1257632Y-1162676D01*
X1239721Y-1180586D01*
X1227056Y-1202523D01*
X1220500Y-1226990D01*
Y-1239015D01*
X1158900D01*
Y-1226990D01*
X1152344Y-1202523D01*
X1139679Y-1180586D01*
X1121768Y-1162676D01*
X1099832Y-1150011D01*
X1075365Y-1143455D01*
X1050035D01*
X1025568Y-1150011D01*
X1003632Y-1162676D01*
X985721Y-1180586D01*
X973056Y-1202523D01*
X966500Y-1226990D01*
Y-1239015D01*
X904900D01*
Y-1226990D01*
X898344Y-1202523D01*
X885679Y-1180586D01*
X867768Y-1162676D01*
X845832Y-1150011D01*
X821365Y-1143455D01*
X796035D01*
X771568Y-1150011D01*
X749632Y-1162676D01*
X731721Y-1180586D01*
X719056Y-1202523D01*
X712500Y-1226990D01*
Y-1239015D01*
X650900D01*
Y-1226990D01*
X644344Y-1202523D01*
X631679Y-1180586D01*
X613768Y-1162676D01*
X591832Y-1150011D01*
X567365Y-1143455D01*
X542035D01*
X517568Y-1150011D01*
X495632Y-1162676D01*
X477721Y-1180586D01*
X465056Y-1202523D01*
X458500Y-1226990D01*
Y-1239015D01*
X396900D01*
Y-1226990D01*
X390344Y-1202523D01*
X377679Y-1180586D01*
X359768Y-1162676D01*
X337832Y-1150011D01*
X313365Y-1143455D01*
X288035D01*
X263568Y-1150011D01*
X241632Y-1162676D01*
X223721Y-1180586D01*
X211056Y-1202523D01*
X204500Y-1226990D01*
Y-1239015D01*
X142900D01*
Y-1226990D01*
X136344Y-1202523D01*
X123679Y-1180586D01*
X105768Y-1162676D01*
X83832Y-1150011D01*
X59365Y-1143455D01*
X34035D01*
X9568Y-1150011D01*
X-12368Y-1162676D01*
X-30279Y-1180586D01*
X-42944Y-1202523D01*
X-49500Y-1226990D01*
Y-1239015D01*
X-111100D01*
Y-1226990D01*
X-117656Y-1202523D01*
X-130321Y-1180586D01*
X-148232Y-1162676D01*
X-170168Y-1150011D01*
X-194635Y-1143455D01*
X-219965D01*
X-244432Y-1150011D01*
X-266368Y-1162676D01*
X-284279Y-1180586D01*
X-296944Y-1202523D01*
X-303500Y-1226990D01*
Y-1239015D01*
X-365100D01*
Y-1226990D01*
X-371656Y-1202523D01*
X-384321Y-1180586D01*
X-402232Y-1162676D01*
X-424168Y-1150011D01*
X-448635Y-1143455D01*
X-473965D01*
X-498432Y-1150011D01*
X-520368Y-1162676D01*
X-538279Y-1180586D01*
X-550944Y-1202523D01*
X-557500Y-1226990D01*
Y-1239015D01*
X-619100D01*
Y-1226990D01*
X-625656Y-1202523D01*
X-638321Y-1180586D01*
X-656232Y-1162676D01*
X-678168Y-1150011D01*
X-702635Y-1143455D01*
X-727965D01*
X-752432Y-1150011D01*
X-774368Y-1162676D01*
X-792279Y-1180586D01*
X-804944Y-1202523D01*
X-811500Y-1226990D01*
Y-1239015D01*
X-867700D01*
Y-1226279D01*
X-874624Y-1200439D01*
X-888000Y-1177271D01*
X-888478Y-1176792D01*
X-960320Y-1248635D01*
X-969301Y-1239655D01*
X-978281Y-1248635D01*
X-1050123Y-1176793D01*
X-1050600Y-1177271D01*
X-1063976Y-1200439D01*
X-1070900Y-1226279D01*
Y-1239015D01*
X-2757082D01*
X-2762144Y1253896D01*
X-2753173Y1262885D01*
X-1065500D01*
Y1247681D01*
X-1058944Y1223214D01*
X-1046279Y1201277D01*
X-1028368Y1183366D01*
X-1006432Y1170701D01*
X-981965Y1164145D01*
X-956635D01*
X-932168Y1170701D01*
X-910232Y1183366D01*
X-892321Y1201277D01*
X-879656Y1223214D01*
X-873100Y1247681D01*
Y1262885D01*
X-811500D01*
Y1247681D01*
X-804944Y1223214D01*
X-792279Y1201277D01*
X-774368Y1183366D01*
X-752432Y1170701D01*
X-727965Y1164145D01*
X-702635D01*
X-678168Y1170701D01*
X-656232Y1183366D01*
X-638321Y1201277D01*
X-625656Y1223214D01*
X-619100Y1247681D01*
Y1262885D01*
X-557500D01*
Y1247681D01*
X-550944Y1223214D01*
X-538279Y1201277D01*
X-520368Y1183366D01*
X-498432Y1170701D01*
X-473965Y1164145D01*
X-448635D01*
X-424168Y1170701D01*
X-402232Y1183366D01*
X-384321Y1201277D01*
X-371656Y1223214D01*
X-365100Y1247681D01*
Y1262885D01*
X-303500D01*
Y1247681D01*
X-296944Y1223214D01*
X-284279Y1201277D01*
X-266368Y1183366D01*
X-244432Y1170701D01*
X-219965Y1164145D01*
X-194635D01*
X-170168Y1170701D01*
X-148232Y1183366D01*
X-130321Y1201277D01*
X-117656Y1223214D01*
X-111100Y1247681D01*
Y1262885D01*
X-49500D01*
Y1247681D01*
X-42944Y1223214D01*
X-30279Y1201277D01*
X-12368Y1183366D01*
X9568Y1170701D01*
X34035Y1164145D01*
X59365D01*
X83832Y1170701D01*
X105768Y1183366D01*
X123679Y1201277D01*
X136344Y1223214D01*
X142900Y1247681D01*
Y1262885D01*
X204500D01*
Y1247681D01*
X211056Y1223214D01*
X223721Y1201277D01*
X241632Y1183366D01*
X263568Y1170701D01*
X288035Y1164145D01*
X313365D01*
X337832Y1170701D01*
X359768Y1183366D01*
X377679Y1201277D01*
X390344Y1223214D01*
X396900Y1247681D01*
Y1262885D01*
X458500D01*
Y1247681D01*
X465056Y1223214D01*
X477721Y1201277D01*
X495632Y1183366D01*
X517568Y1170701D01*
X542035Y1164145D01*
X567365D01*
X591832Y1170701D01*
X613768Y1183366D01*
X631679Y1201277D01*
X644344Y1223214D01*
X650900Y1247681D01*
Y1262885D01*
X712500D01*
Y1247681D01*
X719056Y1223214D01*
X731721Y1201277D01*
X749632Y1183366D01*
X771568Y1170701D01*
X796035Y1164145D01*
X821365D01*
X845832Y1170701D01*
X867768Y1183366D01*
X885679Y1201277D01*
X898344Y1223214D01*
X904900Y1247681D01*
Y1262885D01*
X966500D01*
Y1247681D01*
X973056Y1223214D01*
X985721Y1201277D01*
X1003632Y1183366D01*
X1025568Y1170701D01*
X1050035Y1164145D01*
X1075365D01*
X1099832Y1170701D01*
X1121768Y1183366D01*
X1139679Y1201277D01*
X1152344Y1223214D01*
X1158900Y1247681D01*
Y1262885D01*
X1220500D01*
Y1247681D01*
X1227056Y1223214D01*
X1239721Y1201277D01*
X1257632Y1183366D01*
X1279568Y1170701D01*
X1304035Y1164145D01*
X1329365D01*
X1353832Y1170701D01*
X1375768Y1183366D01*
X1393679Y1201277D01*
X1406344Y1223214D01*
X1412900Y1247681D01*
Y1262885D01*
X1474500D01*
Y1247681D01*
X1481056Y1223214D01*
X1493721Y1201277D01*
X1511632Y1183366D01*
X1533568Y1170701D01*
X1558035Y1164145D01*
X1583365D01*
X1607832Y1170701D01*
X1629768Y1183366D01*
X1647679Y1201277D01*
X1660344Y1223214D01*
X1666900Y1247681D01*
Y1262885D01*
X1728500D01*
Y1247681D01*
X1735056Y1223214D01*
X1747721Y1201277D01*
X1765632Y1183366D01*
X1787568Y1170701D01*
X1812035Y1164145D01*
X1837365D01*
X1861832Y1170701D01*
X1883768Y1183366D01*
X1901679Y1201277D01*
X1914344Y1223214D01*
X1920900Y1247681D01*
Y1262885D01*
X1977100D01*
Y1246970D01*
X1984024Y1221129D01*
X1997400Y1197962D01*
X1997878Y1197484D01*
X2069720Y1269326D01*
X2078700Y1260345D01*
X2087680Y1269326D01*
X2159522Y1197484D01*
X2160000Y1197962D01*
X2173376Y1221129D01*
X2180300Y1246970D01*
Y1262885D01*
X2231100D01*
Y1246970D01*
X2238024Y1221129D01*
X2251400Y1197962D01*
X2251878Y1197484D01*
X2323720Y1269326D01*
X2332700Y1260345D01*
X2341680Y1269326D01*
X2413522Y1197484D01*
D02*
G37*
%LPC*%
G36*
X2332700Y1242385D02*
X2269838Y1179523D01*
X2270316Y1179045D01*
X2293484Y1165669D01*
X2319324Y1158745D01*
X2346076D01*
X2371916Y1165669D01*
X2395084Y1179045D01*
X2395562Y1179523D01*
X2332700Y1242385D01*
D02*
G37*
G36*
X2078700D02*
X2015838Y1179523D01*
X2016316Y1179045D01*
X2039484Y1165669D01*
X2065324Y1158745D01*
X2092076D01*
X2117916Y1165669D01*
X2141084Y1179045D01*
X2141562Y1179523D01*
X2078700Y1242385D01*
D02*
G37*
G36*
X-1542576Y1028885D02*
X-1563669D01*
X-1583156Y1020814D01*
X-1598070Y1005899D01*
X-1606142Y986412D01*
Y965319D01*
X-1598070Y945832D01*
X-1583156Y930917D01*
X-1563669Y922846D01*
X-1542576D01*
X-1523089Y930917D01*
X-1508174Y945832D01*
X-1500102Y965319D01*
Y986412D01*
X-1508174Y1005899D01*
X-1523089Y1020814D01*
X-1542576Y1028885D01*
D02*
G37*
G36*
X-2136936Y1016185D02*
X-2158029D01*
X-2177516Y1008114D01*
X-2192430Y993199D01*
X-2200502Y973712D01*
Y952619D01*
X-2192430Y933132D01*
X-2177516Y918217D01*
X-2158029Y910145D01*
X-2136936D01*
X-2117449Y918217D01*
X-2102534Y933132D01*
X-2094462Y952619D01*
Y973712D01*
X-2102534Y993199D01*
X-2117449Y1008114D01*
X-2136936Y1016185D01*
D02*
G37*
G36*
X-295436Y782505D02*
X-316529D01*
X-336016Y774434D01*
X-350930Y759519D01*
X-359002Y740032D01*
Y718939D01*
X-350930Y699452D01*
X-336016Y684537D01*
X-316529Y676466D01*
X-295436D01*
X-275949Y684537D01*
X-261034Y699452D01*
X-252962Y718939D01*
Y740032D01*
X-261034Y759519D01*
X-275949Y774434D01*
X-295436Y782505D01*
D02*
G37*
G36*
X-2291876Y779965D02*
X-2312969D01*
X-2332456Y771894D01*
X-2347370Y756979D01*
X-2355442Y737492D01*
Y716399D01*
X-2347370Y696912D01*
X-2332456Y681997D01*
X-2312969Y673926D01*
X-2291876D01*
X-2272389Y681997D01*
X-2257474Y696912D01*
X-2249402Y716399D01*
Y737492D01*
X-2257474Y756979D01*
X-2272389Y771894D01*
X-2291876Y779965D01*
D02*
G37*
G36*
X1175224Y777425D02*
X1154131D01*
X1134644Y769354D01*
X1119730Y754439D01*
X1111658Y734952D01*
Y713859D01*
X1119730Y694372D01*
X1134644Y679457D01*
X1154131Y671386D01*
X1175224D01*
X1194711Y679457D01*
X1209626Y694372D01*
X1217698Y713859D01*
Y734952D01*
X1209626Y754439D01*
X1194711Y769354D01*
X1175224Y777425D01*
D02*
G37*
G36*
X-1667036Y703765D02*
X-1688129D01*
X-1707616Y695694D01*
X-1722530Y680779D01*
X-1730602Y661292D01*
Y640199D01*
X-1722530Y620712D01*
X-1707616Y605797D01*
X-1688129Y597725D01*
X-1667036D01*
X-1647549Y605797D01*
X-1632634Y620712D01*
X-1624562Y640199D01*
Y661292D01*
X-1632634Y680779D01*
X-1647549Y695694D01*
X-1667036Y703765D01*
D02*
G37*
G36*
X2000724Y701225D02*
X1979631D01*
X1960144Y693154D01*
X1945230Y678239D01*
X1937158Y658752D01*
Y637659D01*
X1945230Y618172D01*
X1960144Y603257D01*
X1979631Y595185D01*
X2000724D01*
X2020211Y603257D01*
X2035126Y618172D01*
X2043198Y637659D01*
Y658752D01*
X2035126Y678239D01*
X2020211Y693154D01*
X2000724Y701225D01*
D02*
G37*
G36*
X-381796Y680905D02*
X-402889D01*
X-422376Y672834D01*
X-437290Y657919D01*
X-445362Y638432D01*
Y617339D01*
X-437290Y597852D01*
X-422376Y582937D01*
X-402889Y574865D01*
X-381796D01*
X-362309Y582937D01*
X-347394Y597852D01*
X-339322Y617339D01*
Y638432D01*
X-347394Y657919D01*
X-362309Y672834D01*
X-381796Y680905D01*
D02*
G37*
G36*
X-1290554Y642915D02*
X-1311647D01*
X-1331133Y634844D01*
X-1346048Y619929D01*
X-1354120Y600442D01*
Y579349D01*
X-1346048Y559862D01*
X-1331133Y544947D01*
X-1311647Y536875D01*
X-1290554D01*
X-1271067Y544947D01*
X-1256152Y559862D01*
X-1248080Y579349D01*
Y600442D01*
X-1256152Y619929D01*
X-1271067Y634844D01*
X-1290554Y642915D01*
D02*
G37*
G36*
X-1492154D02*
X-1513247D01*
X-1532734Y634844D01*
X-1547648Y619929D01*
X-1555720Y600442D01*
Y579349D01*
X-1547648Y559862D01*
X-1532734Y544947D01*
X-1524646Y541597D01*
X-1527172Y528897D01*
X-1890649D01*
X-1891626Y528703D01*
X-1892619Y528802D01*
X-1895501Y527932D01*
X-1898453Y527345D01*
X-1899281Y526791D01*
X-1900236Y526503D01*
X-1902565Y524597D01*
X-1905068Y522925D01*
X-1905622Y522096D01*
X-1906393Y521465D01*
X-1929547Y493334D01*
X-1930970Y490682D01*
X-1932643Y488179D01*
X-1932837Y487202D01*
X-1933308Y486323D01*
X-1933608Y483326D01*
X-1934195Y480375D01*
X-1934194Y295145D01*
X-1932642Y287341D01*
X-1928221Y280726D01*
X-1928221Y280725D01*
X-1905362Y257867D01*
X-1905362Y257866D01*
X-1898746Y253446D01*
X-1890942Y251894D01*
X-1817489D01*
X-1812629Y240160D01*
X-1813970Y238819D01*
X-1822042Y219332D01*
Y198239D01*
X-1813970Y178752D01*
X-1799056Y163837D01*
X-1779569Y155766D01*
X-1758476D01*
X-1738989Y163837D01*
X-1724074Y178752D01*
X-1716002Y198239D01*
Y219332D01*
X-1724074Y238819D01*
X-1725416Y240160D01*
X-1720556Y251894D01*
X-1662876D01*
X-1639554Y228572D01*
Y-195936D01*
X-1666562Y-222943D01*
X-1733462Y-222943D01*
X-1741266Y-224495D01*
X-1747882Y-228915D01*
X-1747882Y-228916D01*
X-1773282Y-254315D01*
X-1777702Y-260931D01*
X-1779254Y-268735D01*
X-1779255Y-649735D01*
X-1777702Y-657538D01*
X-1773282Y-664154D01*
X-1773281Y-664155D01*
X-1747882Y-689553D01*
X-1747882Y-689554D01*
X-1741266Y-693974D01*
X-1733462Y-695527D01*
X-1469304D01*
X-1469303Y-695527D01*
X-1461499Y-693974D01*
X-1454883Y-689554D01*
X-1454883Y-689553D01*
X-1429483Y-664154D01*
X-1425063Y-657538D01*
X-1423510Y-649735D01*
Y478024D01*
X-1423510Y478025D01*
X-1425063Y485829D01*
X-1429483Y492445D01*
X-1429484Y492445D01*
X-1459963Y522925D01*
X-1466579Y527345D01*
X-1474382Y528897D01*
X-1478228D01*
X-1480754Y541597D01*
X-1472667Y544947D01*
X-1457752Y559862D01*
X-1449680Y579349D01*
Y600442D01*
X-1457752Y619929D01*
X-1472667Y634844D01*
X-1492154Y642915D01*
D02*
G37*
G36*
X397984Y614865D02*
X376891D01*
X357404Y606794D01*
X342490Y591879D01*
X334418Y572392D01*
Y551299D01*
X342490Y531812D01*
X357404Y516897D01*
X376891Y508825D01*
X397984D01*
X417471Y516897D01*
X432386Y531812D01*
X440458Y551299D01*
Y572392D01*
X432386Y591879D01*
X417471Y606794D01*
X397984Y614865D01*
D02*
G37*
G36*
X-381796Y553905D02*
X-402889D01*
X-422376Y545834D01*
X-437290Y530919D01*
X-445362Y511432D01*
Y490339D01*
X-437290Y470852D01*
X-422376Y455937D01*
X-402889Y447865D01*
X-381796D01*
X-362309Y455937D01*
X-347394Y470852D01*
X-339322Y490339D01*
Y511432D01*
X-347394Y530919D01*
X-362309Y545834D01*
X-381796Y553905D01*
D02*
G37*
G36*
X-2036192Y500569D02*
X-2146193D01*
X-2164466Y498163D01*
X-2181494Y491110D01*
X-2196117Y479890D01*
X-2207337Y465267D01*
X-2214391Y448239D01*
X-2216796Y429965D01*
X-2214391Y411692D01*
X-2207337Y394663D01*
X-2196117Y380041D01*
X-2181494Y368821D01*
X-2164466Y361767D01*
X-2146193Y359361D01*
X-2036192D01*
X-2017919Y361767D01*
X-2000890Y368821D01*
X-1986268Y380041D01*
X-1975048Y394663D01*
X-1967994Y411692D01*
X-1965588Y429965D01*
X-1967994Y448239D01*
X-1975048Y465267D01*
X-1986268Y479890D01*
X-2000890Y491110D01*
X-2017919Y498163D01*
X-2036192Y500569D01*
D02*
G37*
G36*
X-2469192D02*
X-2549192D01*
X-2567466Y498163D01*
X-2584494Y491110D01*
X-2599117Y479890D01*
X-2610337Y465267D01*
X-2617390Y448239D01*
X-2619796Y429965D01*
X-2617390Y411692D01*
X-2610337Y394663D01*
X-2599117Y380041D01*
X-2584494Y368821D01*
X-2567466Y361767D01*
X-2549192Y359361D01*
X-2469192D01*
X-2450919Y361767D01*
X-2433890Y368821D01*
X-2419268Y380041D01*
X-2408048Y394663D01*
X-2400994Y411692D01*
X-2398589Y429965D01*
X-2400994Y448239D01*
X-2408048Y465267D01*
X-2419268Y479890D01*
X-2433890Y491110D01*
X-2450919Y498163D01*
X-2469192Y500569D01*
D02*
G37*
G36*
X-2130749Y339466D02*
X-2151635D01*
X-2170931Y331473D01*
X-2185700Y316704D01*
X-2193692Y297409D01*
Y276523D01*
X-2185700Y257227D01*
X-2170931Y242458D01*
X-2151635Y234466D01*
X-2130749D01*
X-2111453Y242458D01*
X-2096685Y257227D01*
X-2088692Y276523D01*
Y297409D01*
X-2096685Y316704D01*
X-2111453Y331473D01*
X-2130749Y339466D01*
D02*
G37*
G36*
X-571114Y312100D02*
X-592206D01*
X-611693Y304028D01*
X-626608Y289113D01*
X-634680Y269626D01*
Y248534D01*
X-626608Y229047D01*
X-611693Y214132D01*
X-592206Y206060D01*
X-571114D01*
X-551627Y214132D01*
X-536712Y229047D01*
X-528640Y248534D01*
Y269626D01*
X-536712Y289113D01*
X-551627Y304028D01*
X-571114Y312100D01*
D02*
G37*
G36*
X2835056Y331939D02*
X2816624D01*
X2798821Y327169D01*
X2782859Y317953D01*
X2769826Y304920D01*
X2760610Y288958D01*
X2755840Y271155D01*
Y252723D01*
X2760610Y234920D01*
X2769826Y218958D01*
X2782859Y205925D01*
X2798821Y196710D01*
X2816624Y191939D01*
X2835056D01*
X2852859Y196710D01*
X2868821Y205925D01*
X2881854Y218958D01*
X2891069Y234920D01*
X2895840Y252723D01*
Y271155D01*
X2891069Y288958D01*
X2881854Y304920D01*
X2868821Y317953D01*
X2852859Y327169D01*
X2835056Y331939D01*
D02*
G37*
G36*
X2043904Y289745D02*
X2022811D01*
X2003324Y281674D01*
X1988410Y266759D01*
X1980338Y247272D01*
Y226179D01*
X1988410Y206692D01*
X2003324Y191777D01*
X2022811Y183705D01*
X2043904D01*
X2063391Y191777D01*
X2078306Y206692D01*
X2086378Y226179D01*
Y247272D01*
X2078306Y266759D01*
X2063391Y281674D01*
X2043904Y289745D01*
D02*
G37*
G36*
X-894876Y284665D02*
X-915969D01*
X-935456Y276594D01*
X-950370Y261679D01*
X-958442Y242192D01*
Y221099D01*
X-950370Y201612D01*
X-935456Y186697D01*
X-915969Y178625D01*
X-894876D01*
X-875389Y186697D01*
X-860474Y201612D01*
X-852402Y221099D01*
Y242192D01*
X-860474Y261679D01*
X-875389Y276594D01*
X-894876Y284665D01*
D02*
G37*
G36*
X-1085376Y114485D02*
X-1106469D01*
X-1125956Y106414D01*
X-1140870Y91499D01*
X-1148942Y72012D01*
Y50919D01*
X-1140870Y31432D01*
X-1125956Y16517D01*
X-1106469Y8446D01*
X-1085376D01*
X-1065889Y16517D01*
X-1050974Y31432D01*
X-1042902Y50919D01*
Y72012D01*
X-1050974Y91499D01*
X-1065889Y106414D01*
X-1085376Y114485D01*
D02*
G37*
G36*
X1921984Y5265D02*
X1900891D01*
X1881404Y-2806D01*
X1866490Y-17721D01*
X1858418Y-37208D01*
Y-58301D01*
X1866490Y-77788D01*
X1881404Y-92703D01*
X1900891Y-100774D01*
X1921984D01*
X1941471Y-92703D01*
X1956386Y-77788D01*
X1964458Y-58301D01*
Y-37208D01*
X1956386Y-17721D01*
X1941471Y-2806D01*
X1921984Y5265D01*
D02*
G37*
G36*
X-785656Y-2355D02*
X-806749D01*
X-826236Y-10426D01*
X-841150Y-25341D01*
X-849222Y-44828D01*
Y-65921D01*
X-841150Y-85408D01*
X-826236Y-100323D01*
X-806749Y-108394D01*
X-785656D01*
X-766169Y-100323D01*
X-751254Y-85408D01*
X-743182Y-65921D01*
Y-44828D01*
X-751254Y-25341D01*
X-766169Y-10426D01*
X-785656Y-2355D01*
D02*
G37*
G36*
X-1755936Y-40455D02*
X-1777029D01*
X-1796516Y-48526D01*
X-1811430Y-63441D01*
X-1819502Y-82928D01*
Y-104021D01*
X-1811430Y-123508D01*
X-1796516Y-138423D01*
X-1777029Y-146494D01*
X-1755936D01*
X-1736449Y-138423D01*
X-1721534Y-123508D01*
X-1713462Y-104021D01*
Y-82928D01*
X-1721534Y-63441D01*
X-1736449Y-48526D01*
X-1755936Y-40455D01*
D02*
G37*
G36*
X600798Y-169383D02*
X600796Y-169384D01*
X-636180D01*
X-636182Y-169383D01*
X-654665Y-171817D01*
X-671888Y-178951D01*
X-686678Y-190299D01*
X-686678Y-190300D01*
X-849238Y-352859D01*
X-860586Y-367649D01*
X-867720Y-384872D01*
X-870153Y-403355D01*
X-870153Y-403357D01*
Y-629415D01*
X-867720Y-647897D01*
X-860586Y-665120D01*
X-857981Y-668516D01*
Y-696317D01*
X-970600Y-808936D01*
X-1601382D01*
X-1624052Y-813446D01*
X-1636682Y-821885D01*
X-1767627D01*
X-1783876Y-815155D01*
X-1804969D01*
X-1824456Y-823226D01*
X-1839370Y-838141D01*
X-1847442Y-857628D01*
Y-878721D01*
X-1840712Y-894970D01*
Y-968380D01*
X-1847442Y-984628D01*
Y-1005721D01*
X-1839370Y-1025208D01*
X-1824456Y-1040123D01*
X-1804969Y-1048194D01*
X-1783876D01*
X-1764389Y-1040123D01*
X-1749474Y-1025208D01*
X-1741402Y-1005721D01*
Y-984628D01*
X-1748133Y-968380D01*
Y-914464D01*
X-1636682D01*
X-1624052Y-922903D01*
X-1601382Y-927413D01*
X-946062D01*
X-923393Y-922903D01*
X-904175Y-910062D01*
X-756855Y-762742D01*
X-744013Y-743524D01*
X-739504Y-720855D01*
Y-668516D01*
X-736899Y-665120D01*
X-729765Y-647897D01*
X-727332Y-629415D01*
Y-432934D01*
X-606603Y-312205D01*
X571218D01*
X573162Y-314149D01*
X587952Y-325498D01*
X605175Y-332632D01*
X623658Y-335066D01*
X642140Y-332632D01*
X659363Y-325498D01*
X674153Y-314149D01*
X685501Y-299360D01*
X692635Y-282137D01*
X695069Y-263655D01*
X692635Y-245172D01*
X685501Y-227949D01*
X674153Y-213159D01*
X651293Y-190299D01*
X636503Y-178951D01*
X619280Y-171817D01*
X600798Y-169383D01*
D02*
G37*
G36*
X836046Y2220D02*
X814954D01*
X795467Y-5852D01*
X780552Y-20767D01*
X772480Y-40254D01*
Y-61346D01*
X780552Y-80833D01*
X795467Y-95748D01*
X813198Y-103093D01*
X816363Y-110263D01*
X817731Y-116520D01*
X809850Y-124401D01*
X801778Y-143888D01*
Y-164981D01*
X809850Y-184468D01*
X824764Y-199383D01*
X844251Y-207455D01*
X865344D01*
X884831Y-199383D01*
X899746Y-184468D01*
X907818Y-164981D01*
Y-143888D01*
X899746Y-124401D01*
X884831Y-109486D01*
X867100Y-102142D01*
X863935Y-94971D01*
X862567Y-88715D01*
X870448Y-80833D01*
X878520Y-61346D01*
Y-40254D01*
X870448Y-20767D01*
X855533Y-5852D01*
X836046Y2220D01*
D02*
G37*
G36*
X-1290554Y-119085D02*
X-1311647D01*
X-1331133Y-127156D01*
X-1346048Y-142071D01*
X-1354120Y-161558D01*
Y-182651D01*
X-1346048Y-202138D01*
X-1331133Y-217053D01*
X-1311647Y-225125D01*
X-1290554D01*
X-1271067Y-217053D01*
X-1256152Y-202138D01*
X-1248080Y-182651D01*
Y-161558D01*
X-1256152Y-142071D01*
X-1271067Y-127156D01*
X-1290554Y-119085D01*
D02*
G37*
G36*
X-2130749Y-238534D02*
X-2151635D01*
X-2170931Y-246527D01*
X-2185700Y-261296D01*
X-2193692Y-280592D01*
Y-301477D01*
X-2185700Y-320773D01*
X-2170931Y-335542D01*
X-2151635Y-343534D01*
X-2130749D01*
X-2111453Y-335542D01*
X-2096685Y-320773D01*
X-2088692Y-301477D01*
Y-280592D01*
X-2096685Y-261296D01*
X-2111453Y-246527D01*
X-2130749Y-238534D01*
D02*
G37*
G36*
X-955836Y-330015D02*
X-976929D01*
X-996416Y-338086D01*
X-1011330Y-353001D01*
X-1019402Y-372488D01*
Y-393581D01*
X-1011330Y-413068D01*
X-996416Y-427983D01*
X-976929Y-436055D01*
X-955836D01*
X-936349Y-427983D01*
X-921434Y-413068D01*
X-913362Y-393581D01*
Y-372488D01*
X-921434Y-353001D01*
X-936349Y-338086D01*
X-955836Y-330015D01*
D02*
G37*
G36*
X-2036192Y-363431D02*
X-2146193D01*
X-2164466Y-365837D01*
X-2181494Y-372890D01*
X-2196117Y-384110D01*
X-2207337Y-398733D01*
X-2214391Y-415761D01*
X-2216796Y-434035D01*
X-2214391Y-452308D01*
X-2207337Y-469337D01*
X-2196117Y-483959D01*
X-2181494Y-495179D01*
X-2164466Y-502233D01*
X-2146193Y-504639D01*
X-2036192D01*
X-2017919Y-502233D01*
X-2000890Y-495179D01*
X-1986268Y-483959D01*
X-1975048Y-469337D01*
X-1967994Y-452308D01*
X-1965588Y-434035D01*
X-1967994Y-415761D01*
X-1975048Y-398733D01*
X-1986268Y-384110D01*
X-2000890Y-372890D01*
X-2017919Y-365837D01*
X-2036192Y-363431D01*
D02*
G37*
G36*
X-2469192D02*
X-2549192D01*
X-2567466Y-365837D01*
X-2584494Y-372890D01*
X-2599117Y-384110D01*
X-2610337Y-398733D01*
X-2617390Y-415761D01*
X-2619796Y-434035D01*
X-2617390Y-452308D01*
X-2610337Y-469337D01*
X-2599117Y-483959D01*
X-2584494Y-495179D01*
X-2567466Y-502233D01*
X-2549192Y-504639D01*
X-2469192D01*
X-2450919Y-502233D01*
X-2433890Y-495179D01*
X-2419268Y-483959D01*
X-2408048Y-469337D01*
X-2400994Y-452308D01*
X-2398589Y-434035D01*
X-2400994Y-415761D01*
X-2408048Y-398733D01*
X-2419268Y-384110D01*
X-2433890Y-372890D01*
X-2450919Y-365837D01*
X-2469192Y-363431D01*
D02*
G37*
G36*
X567786Y-414475D02*
X546694D01*
X527207Y-422547D01*
X512292Y-437461D01*
X504220Y-456948D01*
Y-478041D01*
X512292Y-497528D01*
X527207Y-512443D01*
X546694Y-520515D01*
X567786D01*
X587273Y-512443D01*
X602188Y-497528D01*
X610260Y-478041D01*
Y-456948D01*
X602188Y-437461D01*
X587273Y-422547D01*
X567786Y-414475D01*
D02*
G37*
G36*
X232506D02*
X211414D01*
X191927Y-422547D01*
X177012Y-437461D01*
X168940Y-456948D01*
Y-478041D01*
X177012Y-497528D01*
X191927Y-512443D01*
X211414Y-520515D01*
X232506D01*
X251993Y-512443D01*
X266908Y-497528D01*
X274980Y-478041D01*
Y-456948D01*
X266908Y-437461D01*
X251993Y-422547D01*
X232506Y-414475D01*
D02*
G37*
G36*
X1921984Y-218255D02*
X1900891D01*
X1881404Y-226326D01*
X1866490Y-241241D01*
X1858418Y-260728D01*
Y-281821D01*
X1866490Y-301308D01*
X1881404Y-316223D01*
X1888137Y-319011D01*
Y-332758D01*
X1881404Y-335546D01*
X1866490Y-350461D01*
X1858418Y-369948D01*
Y-391041D01*
X1866490Y-410528D01*
X1881404Y-425443D01*
X1888137Y-428231D01*
Y-441978D01*
X1881404Y-444766D01*
X1866490Y-459681D01*
X1858418Y-479168D01*
Y-500261D01*
X1866490Y-519748D01*
X1881404Y-534663D01*
X1900891Y-542734D01*
X1921984D01*
X1941471Y-534663D01*
X1956386Y-519748D01*
X1964458Y-500261D01*
Y-479168D01*
X1956386Y-459681D01*
X1941471Y-444766D01*
X1934739Y-441978D01*
Y-428231D01*
X1941471Y-425443D01*
X1956386Y-410528D01*
X1964458Y-391041D01*
Y-369948D01*
X1956386Y-350461D01*
X1941471Y-335546D01*
X1934739Y-332758D01*
Y-319011D01*
X1941471Y-316223D01*
X1956386Y-301308D01*
X1964458Y-281821D01*
Y-260728D01*
X1956386Y-241241D01*
X1941471Y-226326D01*
X1921984Y-218255D01*
D02*
G37*
G36*
X1396204Y-335095D02*
X1375111D01*
X1355624Y-343166D01*
X1340710Y-358081D01*
X1332638Y-377568D01*
Y-398661D01*
X1340710Y-418148D01*
X1355624Y-433063D01*
X1362708Y-435997D01*
Y-449743D01*
X1355624Y-452677D01*
X1340710Y-467592D01*
X1332638Y-487079D01*
Y-508172D01*
X1340710Y-527659D01*
X1355624Y-542573D01*
X1375111Y-550645D01*
X1396204D01*
X1415691Y-542573D01*
X1430606Y-527659D01*
X1438678Y-508172D01*
Y-487079D01*
X1430606Y-467592D01*
X1415691Y-452677D01*
X1408608Y-449743D01*
Y-435997D01*
X1415691Y-433063D01*
X1430606Y-418148D01*
X1438678Y-398661D01*
Y-377568D01*
X1430606Y-358081D01*
X1415691Y-343166D01*
X1396204Y-335095D01*
D02*
G37*
G36*
X1269204D02*
X1248111D01*
X1228624Y-343166D01*
X1213710Y-358081D01*
X1205638Y-377568D01*
Y-398661D01*
X1213710Y-418148D01*
X1228624Y-433063D01*
X1235708Y-435997D01*
Y-449743D01*
X1228624Y-452677D01*
X1213710Y-467592D01*
X1205638Y-487079D01*
Y-508172D01*
X1213710Y-527659D01*
X1228624Y-542573D01*
X1248111Y-550645D01*
X1269204D01*
X1288691Y-542573D01*
X1303606Y-527659D01*
X1311678Y-508172D01*
Y-487079D01*
X1303606Y-467592D01*
X1288691Y-452677D01*
X1281608Y-449743D01*
Y-435997D01*
X1288691Y-433063D01*
X1303606Y-418148D01*
X1311678Y-398661D01*
Y-377568D01*
X1303606Y-358081D01*
X1288691Y-343166D01*
X1269204Y-335095D01*
D02*
G37*
G36*
X-394518Y-452219D02*
X-415611D01*
X-435098Y-460291D01*
X-450013Y-475206D01*
X-458084Y-494693D01*
Y-515785D01*
X-450013Y-535272D01*
X-435098Y-550187D01*
X-415611Y-558259D01*
X-394518D01*
X-375031Y-550187D01*
X-360116Y-535272D01*
X-352045Y-515785D01*
Y-494693D01*
X-360116Y-475206D01*
X-375031Y-460291D01*
X-394518Y-452219D01*
D02*
G37*
G36*
X-526576Y-342715D02*
X-547669D01*
X-567156Y-350786D01*
X-582070Y-365701D01*
X-590142Y-385188D01*
Y-406281D01*
X-582070Y-425768D01*
X-567156Y-440683D01*
X-560080Y-443614D01*
Y-457360D01*
X-567156Y-460291D01*
X-582070Y-475206D01*
X-590142Y-494693D01*
Y-515785D01*
X-582070Y-535272D01*
X-567156Y-550187D01*
X-547669Y-558259D01*
X-526576D01*
X-507089Y-550187D01*
X-492174Y-535272D01*
X-484102Y-515785D01*
Y-494693D01*
X-492174Y-475206D01*
X-507089Y-460291D01*
X-514165Y-457360D01*
Y-443614D01*
X-507089Y-440683D01*
X-492174Y-425768D01*
X-484102Y-406281D01*
Y-385188D01*
X-492174Y-365701D01*
X-507089Y-350786D01*
X-526576Y-342715D01*
D02*
G37*
G36*
X-251074Y-513400D02*
X-272166D01*
X-291653Y-521472D01*
X-306568Y-536387D01*
X-314075Y-554511D01*
X-326373Y-560529D01*
X-330996Y-558615D01*
X-352089D01*
X-371576Y-566686D01*
X-386490Y-581601D01*
X-394562Y-601088D01*
Y-622181D01*
X-386490Y-641668D01*
X-371576Y-656583D01*
X-352089Y-664654D01*
X-330996D01*
X-311509Y-656583D01*
X-296594Y-641668D01*
X-289087Y-623544D01*
X-276789Y-617525D01*
X-272166Y-619440D01*
X-251074D01*
X-231587Y-611368D01*
X-216672Y-596453D01*
X-208600Y-576966D01*
Y-555874D01*
X-216672Y-536387D01*
X-231587Y-521472D01*
X-251074Y-513400D01*
D02*
G37*
G36*
X-955836Y-457015D02*
X-976929D01*
X-996416Y-465086D01*
X-1011330Y-480001D01*
X-1019402Y-499488D01*
Y-520581D01*
X-1011330Y-540068D01*
X-996416Y-554983D01*
X-976929Y-563054D01*
X-955836D01*
X-936349Y-554983D01*
X-921434Y-540068D01*
X-913362Y-520581D01*
Y-499488D01*
X-921434Y-480001D01*
X-936349Y-465086D01*
X-955836Y-457015D01*
D02*
G37*
G36*
X2835056Y-468061D02*
X2816624D01*
X2798821Y-472831D01*
X2782859Y-482047D01*
X2769826Y-495080D01*
X2760610Y-511042D01*
X2755840Y-528845D01*
Y-547277D01*
X2760610Y-565080D01*
X2769826Y-581042D01*
X2782859Y-594075D01*
X2798821Y-603290D01*
X2816624Y-608061D01*
X2835056D01*
X2852859Y-603290D01*
X2868821Y-594075D01*
X2881854Y-581042D01*
X2891069Y-565080D01*
X2895840Y-547277D01*
Y-528845D01*
X2891069Y-511042D01*
X2881854Y-495080D01*
X2868821Y-482047D01*
X2852859Y-472831D01*
X2835056Y-468061D01*
D02*
G37*
G36*
X103456Y-510466D02*
X82363D01*
X62876Y-518538D01*
X47961Y-533453D01*
X39889Y-552940D01*
Y-574033D01*
X47961Y-593520D01*
X62876Y-608434D01*
X82363Y-616506D01*
X103456D01*
X122943Y-608434D01*
X137857Y-593520D01*
X145929Y-574033D01*
Y-552940D01*
X137857Y-533453D01*
X122943Y-518538D01*
X103456Y-510466D01*
D02*
G37*
G36*
X-955836Y-584015D02*
X-976929D01*
X-996416Y-592086D01*
X-1011330Y-607001D01*
X-1019402Y-626488D01*
Y-647581D01*
X-1011330Y-667068D01*
X-996416Y-681983D01*
X-976929Y-690055D01*
X-955836D01*
X-936349Y-681983D01*
X-921434Y-667068D01*
X-913362Y-647581D01*
Y-626488D01*
X-921434Y-607001D01*
X-936349Y-592086D01*
X-955836Y-584015D01*
D02*
G37*
G36*
X1921984Y-589095D02*
X1900891D01*
X1881404Y-597166D01*
X1866490Y-612081D01*
X1858418Y-631568D01*
Y-652661D01*
X1866490Y-672148D01*
X1881404Y-687063D01*
X1900891Y-695134D01*
X1921984D01*
X1941471Y-687063D01*
X1956386Y-672148D01*
X1964458Y-652661D01*
Y-631568D01*
X1956386Y-612081D01*
X1941471Y-597166D01*
X1921984Y-589095D01*
D02*
G37*
G36*
X-47874Y-640400D02*
X-68966D01*
X-88453Y-648472D01*
X-103368Y-663387D01*
X-111440Y-682874D01*
Y-703966D01*
X-103368Y-723453D01*
X-88453Y-738368D01*
X-68966Y-746440D01*
X-47874D01*
X-28387Y-738368D01*
X-13472Y-723453D01*
X-5400Y-703966D01*
Y-682874D01*
X-13472Y-663387D01*
X-28387Y-648472D01*
X-47874Y-640400D01*
D02*
G37*
G36*
X-508796Y-667835D02*
X-529889D01*
X-549376Y-675906D01*
X-564290Y-690821D01*
X-572362Y-710308D01*
Y-731401D01*
X-564290Y-750888D01*
X-549376Y-765803D01*
X-529889Y-773874D01*
X-508796D01*
X-489309Y-765803D01*
X-474394Y-750888D01*
X-466322Y-731401D01*
Y-710308D01*
X-474394Y-690821D01*
X-489309Y-675906D01*
X-508796Y-667835D01*
D02*
G37*
G36*
X694786Y-676095D02*
X673694D01*
X654207Y-684167D01*
X639292Y-699081D01*
X631220Y-718568D01*
Y-739661D01*
X639292Y-759148D01*
X654207Y-774063D01*
X673694Y-782135D01*
X694786D01*
X714273Y-774063D01*
X729188Y-759148D01*
X737260Y-739661D01*
Y-718568D01*
X729188Y-699081D01*
X714273Y-684167D01*
X694786Y-676095D01*
D02*
G37*
G36*
X-1915956Y-467175D02*
X-1937049D01*
X-1956536Y-475246D01*
X-1971450Y-490161D01*
X-1979522Y-509648D01*
Y-530741D01*
X-1971450Y-550228D01*
X-1956536Y-565143D01*
X-1943671Y-570471D01*
Y-584218D01*
X-1956536Y-589546D01*
X-1971450Y-604461D01*
X-1979522Y-623948D01*
Y-645041D01*
X-1971450Y-664528D01*
X-1956536Y-679443D01*
X-1943671Y-684771D01*
Y-698518D01*
X-1956536Y-703846D01*
X-1971450Y-718761D01*
X-1979522Y-738248D01*
Y-759341D01*
X-1971450Y-778828D01*
X-1956536Y-793743D01*
X-1937049Y-801815D01*
X-1915956D01*
X-1896469Y-793743D01*
X-1881554Y-778828D01*
X-1873482Y-759341D01*
Y-738248D01*
X-1881554Y-718761D01*
X-1896469Y-703846D01*
X-1909333Y-698518D01*
Y-684771D01*
X-1896469Y-679443D01*
X-1881554Y-664528D01*
X-1873482Y-645041D01*
Y-623948D01*
X-1881554Y-604461D01*
X-1896469Y-589546D01*
X-1909333Y-584218D01*
Y-570471D01*
X-1896469Y-565143D01*
X-1881554Y-550228D01*
X-1873482Y-530741D01*
Y-509648D01*
X-1881554Y-490161D01*
X-1896469Y-475246D01*
X-1915956Y-467175D01*
D02*
G37*
G36*
X-590076Y-758959D02*
X-611169D01*
X-630656Y-767030D01*
X-645570Y-781945D01*
X-653642Y-801432D01*
Y-822525D01*
X-645570Y-842012D01*
X-630656Y-856927D01*
X-611169Y-864999D01*
X-590076D01*
X-570589Y-856927D01*
X-555674Y-842012D01*
X-547602Y-822525D01*
Y-801432D01*
X-555674Y-781945D01*
X-570589Y-767030D01*
X-590076Y-758959D01*
D02*
G37*
G36*
X1693386Y-764541D02*
X1672294D01*
X1652807Y-772613D01*
X1637892Y-787528D01*
X1629820Y-807015D01*
Y-828107D01*
X1637892Y-847594D01*
X1652807Y-862509D01*
X1672294Y-870581D01*
X1693386D01*
X1712873Y-862509D01*
X1727788Y-847594D01*
X1735860Y-828107D01*
Y-807015D01*
X1727788Y-787528D01*
X1712873Y-772613D01*
X1693386Y-764541D01*
D02*
G37*
G36*
X-1562896Y-1018355D02*
X-1583989D01*
X-1603476Y-1026426D01*
X-1618390Y-1041341D01*
X-1626462Y-1060828D01*
Y-1081921D01*
X-1618390Y-1101408D01*
X-1603476Y-1116323D01*
X-1583989Y-1124395D01*
X-1562896D01*
X-1543409Y-1116323D01*
X-1528494Y-1101408D01*
X-1520422Y-1081921D01*
Y-1060828D01*
X-1528494Y-1041341D01*
X-1543409Y-1026426D01*
X-1562896Y-1018355D01*
D02*
G37*
G36*
X2346076Y-1138055D02*
X2319324D01*
X2293484Y-1144978D01*
X2270316Y-1158354D01*
X2269838Y-1158833D01*
X2332699Y-1221694D01*
X2395562Y-1158832D01*
X2395084Y-1158354D01*
X2371916Y-1144978D01*
X2346076Y-1138055D01*
D02*
G37*
G36*
X2092076D02*
X2065324D01*
X2039484Y-1144978D01*
X2016316Y-1158354D01*
X2015838Y-1158833D01*
X2078699Y-1221694D01*
X2141562Y-1158832D01*
X2141084Y-1158354D01*
X2117916Y-1144978D01*
X2092076Y-1138055D01*
D02*
G37*
G36*
X-955924D02*
X-982676D01*
X-1008516Y-1144978D01*
X-1031684Y-1158354D01*
X-1032162Y-1158833D01*
X-969301Y-1221694D01*
X-906438Y-1158832D01*
X-906916Y-1158354D01*
X-930084Y-1144978D01*
X-955924Y-1138055D01*
D02*
G37*
%LPD*%
G36*
X-1443902Y478025D02*
Y-649735D01*
X-1469303Y-675135D01*
X-1733462D01*
X-1758863Y-649735D01*
X-1758862Y-268735D01*
X-1733462Y-243335D01*
X-1658115Y-243335D01*
X-1619162Y-204382D01*
Y237019D01*
X-1654429Y272285D01*
X-1890942D01*
X-1913802Y295145D01*
X-1913803Y480375D01*
X-1890649Y508505D01*
X-1474382D01*
X-1443902Y478025D01*
D02*
G37*
D35*
X-1794422Y-995175D02*
Y-868175D01*
X-1601382D01*
X-1794422Y-995175D02*
X-1793152Y-993905D01*
D38*
X-636182Y-240795D02*
X600798D01*
X623658Y-263655D01*
X-798742Y-403355D02*
X-636182Y-240795D01*
X-798742Y-629415D02*
Y-403355D01*
D41*
X-2091192Y429965D02*
D03*
Y-434035D02*
D03*
D42*
X-2509192Y429965D02*
D03*
Y-434035D02*
D03*
D43*
X-2141192Y-291034D02*
D03*
Y286966D02*
D03*
D44*
X2825840Y-538061D02*
D03*
Y261939D02*
D03*
D45*
X2586700Y1260345D02*
D03*
Y-1239655D02*
D03*
X2840700D02*
D03*
Y1260345D02*
D03*
X-969300D02*
D03*
X-715300D02*
D03*
X-969300Y-1239655D02*
D03*
X2078700Y1260345D02*
D03*
Y-1239655D02*
D03*
X2332700Y1260345D02*
D03*
Y-1239655D02*
D03*
X554700D02*
D03*
X808700D02*
D03*
X300700D02*
D03*
X1062700D02*
D03*
X1316700D02*
D03*
X46700D02*
D03*
X-207300D02*
D03*
X-461300D02*
D03*
X-715300D02*
D03*
X1570700D02*
D03*
X1824700D02*
D03*
Y1260345D02*
D03*
X1570700D02*
D03*
X-461300D02*
D03*
X1316700D02*
D03*
X1062700D02*
D03*
X808700D02*
D03*
X-207300D02*
D03*
X554700D02*
D03*
X46700D02*
D03*
X300700D02*
D03*
D46*
X-58420Y-693420D02*
D03*
X-193040Y-632460D02*
D03*
X-261620Y-566420D02*
D03*
X-642620Y66040D02*
D03*
X-581660Y259080D02*
D03*
X1682840Y-817561D02*
D03*
X-1794422Y-868175D02*
D03*
X1990178Y648205D02*
D03*
X-1553122Y975865D02*
D03*
X-1677582Y650745D02*
D03*
X-1095922Y61465D02*
D03*
X-796202Y-55375D02*
D03*
X1258658Y-497625D02*
D03*
X1385658D02*
D03*
X623658Y-263655D02*
D03*
X1545678Y-692915D02*
D03*
X1911438Y-642115D02*
D03*
X854798Y-154435D02*
D03*
X-537122Y-395735D02*
D03*
Y-505239D02*
D03*
X-1342302Y-964695D02*
D03*
X-966382Y-637035D02*
D03*
X-1794422Y-995175D02*
D03*
X-905422Y231645D02*
D03*
X47078Y630425D02*
D03*
X825500Y-50800D02*
D03*
X1449158Y127986D02*
D03*
X-305982Y729485D02*
D03*
X1258658Y-388115D02*
D03*
X1385658D02*
D03*
X1911438Y-380495D02*
D03*
Y-271275D02*
D03*
Y-47755D02*
D03*
X2033358Y236725D02*
D03*
X557240Y-467495D02*
D03*
X1911438Y-489715D02*
D03*
X1322158Y38605D02*
D03*
X1449158D02*
D03*
X1195158D02*
D03*
X1068158D02*
D03*
X-2147482Y963165D02*
D03*
X-2302422Y726945D02*
D03*
X-2241462Y-631955D02*
D03*
X-966382Y-510035D02*
D03*
Y-383035D02*
D03*
X-1926502Y-634495D02*
D03*
Y-748795D02*
D03*
Y-520195D02*
D03*
X-1189902Y-964695D02*
D03*
X-1342302Y-710695D02*
D03*
Y-583695D02*
D03*
X-1643380Y-595020D02*
D03*
X-1661160Y-427380D02*
D03*
Y-300380D02*
D03*
X-1857922Y320545D02*
D03*
X-1713142D02*
D03*
Y447545D02*
D03*
X-1857922D02*
D03*
X-1573442Y-1071375D02*
D03*
X-1766482Y-93475D02*
D03*
X-1769022Y208785D02*
D03*
X92909Y-563486D02*
D03*
X-1301100Y589895D02*
D03*
X-1502700D02*
D03*
X-519342Y-720855D02*
D03*
X-600622Y-811979D02*
D03*
X-1301100Y-172105D02*
D03*
X-392342Y627885D02*
D03*
Y500885D02*
D03*
X-405064Y-505239D02*
D03*
X-341542Y-611635D02*
D03*
X221960Y-467495D02*
D03*
X684240Y-729115D02*
D03*
X1164678Y724405D02*
D03*
X387438Y561845D02*
D03*
D47*
X-798742Y-720855D02*
Y-629415D01*
X-946062Y-868175D02*
X-798742Y-720855D01*
X-1601382Y-868175D02*
X-946062D01*
%TF.MD5,a3ef7d22dc848ab39fb6f57a46b1079c*%
M02*
