%TF.GenerationSoftware,Altium Limited,Altium Designer,25.4.2 (15)*%
G04 Layer_Physical_Order=2*
G04 Layer_Color=37055*
%FSLAX45Y45*%
%MOMM*%
%TF.SameCoordinates,D428E1E4-D561-4EBD-83AA-0298DF20FA0A*%
%TF.FilePolarity,Positive*%
%TF.FileFunction,Copper,L2,Inr,Signal*%
%TF.Part,Single*%
G01*
G75*
%TA.AperFunction,ComponentPad*%
%ADD41O,2.10000X1.00000*%
%ADD42O,1.80000X1.00000*%
%ADD43C,0.65000*%
%ADD44C,1.00000*%
%ADD45C,1.52400*%
%TA.AperFunction,ViaPad*%
%ADD46C,0.66040*%
G36*
X2921522Y1197484D02*
X2922000Y1197962D01*
X2935376Y1221129D01*
X2942300Y1246970D01*
Y1262885D01*
X3247478D01*
Y-1228238D01*
X3239857Y-1231395D01*
X2942300D01*
Y-1226279D01*
X2935376Y-1200439D01*
X2922000Y-1177271D01*
X2921522Y-1176792D01*
X2849680Y-1248635D01*
X2840699Y-1239655D01*
X2831719Y-1248635D01*
X2759877Y-1176793D01*
X2759400Y-1177271D01*
X2746024Y-1200439D01*
X2739100Y-1226279D01*
Y-1231395D01*
X2688300D01*
Y-1226279D01*
X2681376Y-1200439D01*
X2668000Y-1177271D01*
X2667522Y-1176792D01*
X2595680Y-1248635D01*
X2586699Y-1239655D01*
X2577719Y-1248635D01*
X2505877Y-1176793D01*
X2505400Y-1177271D01*
X2492024Y-1200439D01*
X2485100Y-1226279D01*
Y-1231395D01*
X2428900D01*
Y-1226990D01*
X2422344Y-1202523D01*
X2409679Y-1180586D01*
X2391768Y-1162676D01*
X2369832Y-1150011D01*
X2345365Y-1143455D01*
X2320035D01*
X2295568Y-1150011D01*
X2273632Y-1162676D01*
X2255721Y-1180586D01*
X2243056Y-1202523D01*
X2236500Y-1226990D01*
Y-1231395D01*
X2174900D01*
Y-1226990D01*
X2168344Y-1202523D01*
X2155679Y-1180586D01*
X2137768Y-1162676D01*
X2115832Y-1150011D01*
X2091365Y-1143455D01*
X2066035D01*
X2041568Y-1150011D01*
X2019632Y-1162676D01*
X2001721Y-1180586D01*
X1989056Y-1202523D01*
X1982500Y-1226990D01*
Y-1231395D01*
X1920900D01*
Y-1226990D01*
X1914344Y-1202523D01*
X1901679Y-1180586D01*
X1883768Y-1162676D01*
X1861832Y-1150011D01*
X1837365Y-1143455D01*
X1812035D01*
X1787568Y-1150011D01*
X1765632Y-1162676D01*
X1747721Y-1180586D01*
X1735056Y-1202523D01*
X1728500Y-1226990D01*
Y-1231395D01*
X1666900D01*
Y-1226990D01*
X1660344Y-1202523D01*
X1647679Y-1180586D01*
X1629768Y-1162676D01*
X1607832Y-1150011D01*
X1583365Y-1143455D01*
X1558035D01*
X1533568Y-1150011D01*
X1511632Y-1162676D01*
X1493721Y-1180586D01*
X1481056Y-1202523D01*
X1474500Y-1226990D01*
Y-1231395D01*
X1412900D01*
Y-1226990D01*
X1406344Y-1202523D01*
X1393679Y-1180586D01*
X1375768Y-1162676D01*
X1353832Y-1150011D01*
X1329365Y-1143455D01*
X1304035D01*
X1279568Y-1150011D01*
X1257632Y-1162676D01*
X1239721Y-1180586D01*
X1227056Y-1202523D01*
X1220500Y-1226990D01*
Y-1231395D01*
X1158900D01*
Y-1226990D01*
X1152344Y-1202523D01*
X1139679Y-1180586D01*
X1121768Y-1162676D01*
X1099832Y-1150011D01*
X1075365Y-1143455D01*
X1050035D01*
X1025568Y-1150011D01*
X1003632Y-1162676D01*
X985721Y-1180586D01*
X973056Y-1202523D01*
X966500Y-1226990D01*
Y-1231395D01*
X904900D01*
Y-1226990D01*
X898344Y-1202523D01*
X885679Y-1180586D01*
X867768Y-1162676D01*
X845832Y-1150011D01*
X821365Y-1143455D01*
X796035D01*
X771568Y-1150011D01*
X749632Y-1162676D01*
X731721Y-1180586D01*
X719056Y-1202523D01*
X712500Y-1226990D01*
Y-1231395D01*
X650900D01*
Y-1226990D01*
X644344Y-1202523D01*
X631679Y-1180586D01*
X613768Y-1162676D01*
X591832Y-1150011D01*
X567365Y-1143455D01*
X542035D01*
X517568Y-1150011D01*
X495632Y-1162676D01*
X477721Y-1180586D01*
X465056Y-1202523D01*
X458500Y-1226990D01*
Y-1231395D01*
X396900D01*
Y-1226990D01*
X390344Y-1202523D01*
X377679Y-1180586D01*
X359768Y-1162676D01*
X337832Y-1150011D01*
X313365Y-1143455D01*
X288035D01*
X263568Y-1150011D01*
X241632Y-1162676D01*
X223721Y-1180586D01*
X211056Y-1202523D01*
X204500Y-1226990D01*
Y-1231395D01*
X142900D01*
Y-1226990D01*
X136344Y-1202523D01*
X123679Y-1180586D01*
X105768Y-1162676D01*
X83832Y-1150011D01*
X59365Y-1143455D01*
X34035D01*
X9568Y-1150011D01*
X-12368Y-1162676D01*
X-30279Y-1180586D01*
X-42944Y-1202523D01*
X-49500Y-1226990D01*
Y-1231395D01*
X-111100D01*
Y-1226990D01*
X-117656Y-1202523D01*
X-130321Y-1180586D01*
X-148232Y-1162676D01*
X-170168Y-1150011D01*
X-194635Y-1143455D01*
X-219965D01*
X-244432Y-1150011D01*
X-266368Y-1162676D01*
X-284279Y-1180586D01*
X-296944Y-1202523D01*
X-303500Y-1226990D01*
Y-1231395D01*
X-365100D01*
Y-1226990D01*
X-371656Y-1202523D01*
X-384321Y-1180586D01*
X-402232Y-1162676D01*
X-424168Y-1150011D01*
X-448635Y-1143455D01*
X-473965D01*
X-498432Y-1150011D01*
X-520368Y-1162676D01*
X-538279Y-1180586D01*
X-550944Y-1202523D01*
X-557500Y-1226990D01*
Y-1231395D01*
X-619100D01*
Y-1226990D01*
X-625656Y-1202523D01*
X-638321Y-1180586D01*
X-656232Y-1162676D01*
X-678168Y-1150011D01*
X-702635Y-1143455D01*
X-727965D01*
X-752432Y-1150011D01*
X-774368Y-1162676D01*
X-792279Y-1180586D01*
X-804944Y-1202523D01*
X-811500Y-1226990D01*
Y-1231395D01*
X-873100D01*
Y-1226990D01*
X-879656Y-1202523D01*
X-892321Y-1180586D01*
X-910232Y-1162676D01*
X-932168Y-1150011D01*
X-956635Y-1143455D01*
X-981965D01*
X-1006432Y-1150011D01*
X-1028368Y-1162676D01*
X-1046279Y-1180586D01*
X-1058944Y-1202523D01*
X-1065500Y-1226990D01*
Y-1231395D01*
X-2755615D01*
X-2763207Y1253891D01*
X-2754240Y1262885D01*
X-1065500D01*
Y1247681D01*
X-1058944Y1223214D01*
X-1046279Y1201277D01*
X-1028368Y1183366D01*
X-1006432Y1170701D01*
X-981965Y1164145D01*
X-956635D01*
X-932168Y1170701D01*
X-910232Y1183366D01*
X-892321Y1201277D01*
X-879656Y1223214D01*
X-873100Y1247681D01*
Y1262885D01*
X-811500D01*
Y1247681D01*
X-804944Y1223214D01*
X-792279Y1201277D01*
X-774368Y1183366D01*
X-752432Y1170701D01*
X-727965Y1164145D01*
X-702635D01*
X-678168Y1170701D01*
X-656232Y1183366D01*
X-638321Y1201277D01*
X-625656Y1223214D01*
X-619100Y1247681D01*
Y1262885D01*
X-557500D01*
Y1247681D01*
X-550944Y1223214D01*
X-538279Y1201277D01*
X-520368Y1183366D01*
X-498432Y1170701D01*
X-473965Y1164145D01*
X-448635D01*
X-424168Y1170701D01*
X-402232Y1183366D01*
X-384321Y1201277D01*
X-371656Y1223214D01*
X-365100Y1247681D01*
Y1262885D01*
X-303500D01*
Y1247681D01*
X-296944Y1223214D01*
X-284279Y1201277D01*
X-266368Y1183366D01*
X-244432Y1170701D01*
X-219965Y1164145D01*
X-194635D01*
X-170168Y1170701D01*
X-148232Y1183366D01*
X-130321Y1201277D01*
X-117656Y1223214D01*
X-111100Y1247681D01*
Y1262885D01*
X-49500D01*
Y1247681D01*
X-42944Y1223214D01*
X-30279Y1201277D01*
X-12368Y1183366D01*
X9568Y1170701D01*
X34035Y1164145D01*
X59365D01*
X83832Y1170701D01*
X105768Y1183366D01*
X123679Y1201277D01*
X136344Y1223214D01*
X142900Y1247681D01*
Y1262885D01*
X204500D01*
Y1247681D01*
X211056Y1223214D01*
X223721Y1201277D01*
X241632Y1183366D01*
X263568Y1170701D01*
X288035Y1164145D01*
X313365D01*
X337832Y1170701D01*
X359768Y1183366D01*
X377679Y1201277D01*
X390344Y1223214D01*
X396900Y1247681D01*
Y1262885D01*
X458500D01*
Y1247681D01*
X465056Y1223214D01*
X477721Y1201277D01*
X495632Y1183366D01*
X517568Y1170701D01*
X542035Y1164145D01*
X567365D01*
X591832Y1170701D01*
X613768Y1183366D01*
X631679Y1201277D01*
X644344Y1223214D01*
X650900Y1247681D01*
Y1262885D01*
X712500D01*
Y1247681D01*
X719056Y1223214D01*
X731721Y1201277D01*
X749632Y1183366D01*
X771568Y1170701D01*
X796035Y1164145D01*
X821365D01*
X845832Y1170701D01*
X867768Y1183366D01*
X885679Y1201277D01*
X898344Y1223214D01*
X904900Y1247681D01*
Y1262885D01*
X966500D01*
Y1247681D01*
X973056Y1223214D01*
X985721Y1201277D01*
X1003632Y1183366D01*
X1025568Y1170701D01*
X1050035Y1164145D01*
X1075365D01*
X1099832Y1170701D01*
X1121768Y1183366D01*
X1139679Y1201277D01*
X1152344Y1223214D01*
X1158900Y1247681D01*
Y1262885D01*
X1220500D01*
Y1247681D01*
X1227056Y1223214D01*
X1239721Y1201277D01*
X1257632Y1183366D01*
X1279568Y1170701D01*
X1304035Y1164145D01*
X1329365D01*
X1353832Y1170701D01*
X1375768Y1183366D01*
X1393679Y1201277D01*
X1406344Y1223214D01*
X1412900Y1247681D01*
Y1262885D01*
X1474500D01*
Y1247681D01*
X1481056Y1223214D01*
X1493721Y1201277D01*
X1511632Y1183366D01*
X1533568Y1170701D01*
X1558035Y1164145D01*
X1583365D01*
X1607832Y1170701D01*
X1629768Y1183366D01*
X1647679Y1201277D01*
X1660344Y1223214D01*
X1666900Y1247681D01*
Y1262885D01*
X1728500D01*
Y1247681D01*
X1735056Y1223214D01*
X1747721Y1201277D01*
X1765632Y1183366D01*
X1787568Y1170701D01*
X1812035Y1164145D01*
X1837365D01*
X1861832Y1170701D01*
X1883768Y1183366D01*
X1901679Y1201277D01*
X1914344Y1223214D01*
X1920900Y1247681D01*
Y1262885D01*
X1982500D01*
Y1247681D01*
X1989056Y1223214D01*
X2001721Y1201277D01*
X2019632Y1183366D01*
X2041568Y1170701D01*
X2066035Y1164145D01*
X2091365D01*
X2115832Y1170701D01*
X2137768Y1183366D01*
X2155679Y1201277D01*
X2168344Y1223214D01*
X2174900Y1247681D01*
Y1262885D01*
X2236500D01*
Y1247681D01*
X2243056Y1223214D01*
X2255721Y1201277D01*
X2273632Y1183366D01*
X2295568Y1170701D01*
X2320035Y1164145D01*
X2345365D01*
X2369832Y1170701D01*
X2391768Y1183366D01*
X2409679Y1201277D01*
X2422344Y1223214D01*
X2428900Y1247681D01*
Y1262885D01*
X2485100D01*
Y1246970D01*
X2492024Y1221129D01*
X2505400Y1197962D01*
X2505878Y1197484D01*
X2577720Y1269326D01*
X2586700Y1260345D01*
X2595680Y1269326D01*
X2667522Y1197484D01*
X2668000Y1197962D01*
X2681376Y1221129D01*
X2688300Y1246970D01*
Y1262885D01*
X2739100D01*
Y1246970D01*
X2746024Y1221129D01*
X2759400Y1197962D01*
X2759878Y1197484D01*
X2831720Y1269326D01*
X2840700Y1260345D01*
X2849680Y1269326D01*
X2921522Y1197484D01*
D02*
G37*
%LPC*%
G36*
X2840700Y1242385D02*
X2777838Y1179523D01*
X2778316Y1179045D01*
X2801484Y1165669D01*
X2827324Y1158745D01*
X2854076D01*
X2879916Y1165669D01*
X2903084Y1179045D01*
X2903562Y1179523D01*
X2840700Y1242385D01*
D02*
G37*
G36*
X2586700D02*
X2523838Y1179523D01*
X2524316Y1179045D01*
X2547484Y1165669D01*
X2573324Y1158745D01*
X2600076D01*
X2625916Y1165669D01*
X2649084Y1179045D01*
X2649562Y1179523D01*
X2586700Y1242385D01*
D02*
G37*
G36*
X-295436Y782505D02*
X-316529D01*
X-336016Y774434D01*
X-350930Y759519D01*
X-359002Y740032D01*
Y718939D01*
X-350930Y699452D01*
X-336016Y684537D01*
X-316529Y676466D01*
X-295436D01*
X-275949Y684537D01*
X-261034Y699452D01*
X-252962Y718939D01*
Y740032D01*
X-261034Y759519D01*
X-275949Y774434D01*
X-295436Y782505D01*
D02*
G37*
G36*
X1175224Y777425D02*
X1154131D01*
X1134644Y769354D01*
X1119730Y754439D01*
X1111658Y734952D01*
Y713859D01*
X1119730Y694372D01*
X1134644Y679457D01*
X1154131Y671386D01*
X1175224D01*
X1194711Y679457D01*
X1209626Y694372D01*
X1217698Y713859D01*
Y734952D01*
X1209626Y754439D01*
X1194711Y769354D01*
X1175224Y777425D01*
D02*
G37*
G36*
X-1667036Y703765D02*
X-1688129D01*
X-1707616Y695694D01*
X-1722530Y680779D01*
X-1730602Y661292D01*
Y640199D01*
X-1722530Y620712D01*
X-1707616Y605797D01*
X-1688129Y597725D01*
X-1667036D01*
X-1647549Y605797D01*
X-1632634Y620712D01*
X-1624562Y640199D01*
Y661292D01*
X-1632634Y680779D01*
X-1647549Y695694D01*
X-1667036Y703765D01*
D02*
G37*
G36*
X57624Y683445D02*
X36531D01*
X17044Y675374D01*
X2130Y660459D01*
X-5942Y640972D01*
Y619879D01*
X2130Y600392D01*
X17044Y585477D01*
X36531Y577405D01*
X57624D01*
X77111Y585477D01*
X92026Y600392D01*
X100098Y619879D01*
Y640972D01*
X92026Y660459D01*
X77111Y675374D01*
X57624Y683445D01*
D02*
G37*
G36*
X-381796Y680905D02*
X-402889D01*
X-422376Y672834D01*
X-437290Y657919D01*
X-445362Y638432D01*
Y617339D01*
X-437290Y597852D01*
X-422376Y582937D01*
X-402889Y574865D01*
X-381796D01*
X-362309Y582937D01*
X-347394Y597852D01*
X-339322Y617339D01*
Y638432D01*
X-347394Y657919D01*
X-362309Y672834D01*
X-381796Y680905D01*
D02*
G37*
G36*
X-1290554Y642915D02*
X-1311647D01*
X-1331133Y634844D01*
X-1346048Y619929D01*
X-1354120Y600442D01*
Y579349D01*
X-1346048Y559862D01*
X-1331133Y544947D01*
X-1311647Y536875D01*
X-1290554D01*
X-1271067Y544947D01*
X-1256152Y559862D01*
X-1248080Y579349D01*
Y600442D01*
X-1256152Y619929D01*
X-1271067Y634844D01*
X-1290554Y642915D01*
D02*
G37*
G36*
X-1492154D02*
X-1513247D01*
X-1532734Y634844D01*
X-1547648Y619929D01*
X-1555720Y600442D01*
Y579349D01*
X-1547648Y559862D01*
X-1532734Y544947D01*
X-1513247Y536875D01*
X-1492154D01*
X-1472667Y544947D01*
X-1457752Y559862D01*
X-1449680Y579349D01*
Y600442D01*
X-1457752Y619929D01*
X-1472667Y634844D01*
X-1492154Y642915D01*
D02*
G37*
G36*
X-381796Y553905D02*
X-402889D01*
X-422376Y545834D01*
X-437290Y530919D01*
X-445362Y511432D01*
Y490339D01*
X-437290Y470852D01*
X-422376Y455937D01*
X-402889Y447865D01*
X-381796D01*
X-362309Y455937D01*
X-347394Y470852D01*
X-339322Y490339D01*
Y511432D01*
X-347394Y530919D01*
X-362309Y545834D01*
X-381796Y553905D01*
D02*
G37*
G36*
X-1702596Y500565D02*
X-1723689D01*
X-1743176Y492494D01*
X-1758090Y477579D01*
X-1766162Y458092D01*
Y436999D01*
X-1758090Y417512D01*
X-1743176Y402597D01*
X-1723689Y394525D01*
X-1702596D01*
X-1683109Y402597D01*
X-1668194Y417512D01*
X-1660122Y436999D01*
Y458092D01*
X-1668194Y477579D01*
X-1683109Y492494D01*
X-1702596Y500565D01*
D02*
G37*
G36*
X-1847376D02*
X-1868469D01*
X-1887956Y492494D01*
X-1902870Y477579D01*
X-1910942Y458092D01*
Y436999D01*
X-1902870Y417512D01*
X-1887956Y402597D01*
X-1868469Y394525D01*
X-1847376D01*
X-1827889Y402597D01*
X-1812974Y417512D01*
X-1804902Y436999D01*
Y458092D01*
X-1812974Y477579D01*
X-1827889Y492494D01*
X-1847376Y500565D01*
D02*
G37*
G36*
X-2610766Y473578D02*
X-2615054Y467991D01*
X-2622652Y449649D01*
X-2625243Y429965D01*
X-2622652Y410282D01*
X-2615054Y391940D01*
X-2610766Y386352D01*
X-2567153Y429965D01*
X-2610766Y473578D01*
D02*
G37*
G36*
X-2207766Y473579D02*
X-2212054Y467991D01*
X-2219652Y449649D01*
X-2222243Y429965D01*
X-2219652Y410282D01*
X-2212054Y391940D01*
X-2207766Y386352D01*
X-2164153Y429966D01*
X-2207766Y473579D01*
D02*
G37*
G36*
X-1974619Y473579D02*
X-2018232Y429966D01*
X-1974619Y386352D01*
X-1970331Y391940D01*
X-1962733Y410282D01*
X-1960142Y429965D01*
X-1962733Y449649D01*
X-1970331Y467991D01*
X-1974619Y473579D01*
D02*
G37*
G36*
X-2407619D02*
X-2451233Y429965D01*
X-2407619Y386352D01*
X-2403331Y391940D01*
X-2395733Y410282D01*
X-2393142Y429965D01*
X-2395733Y449649D01*
X-2403331Y467991D01*
X-2407619Y473579D01*
D02*
G37*
G36*
X-2036192Y506016D02*
X-2146193D01*
X-2165876Y503425D01*
X-2184218Y495827D01*
X-2189806Y491539D01*
X-2137213Y438946D01*
X-2146193Y429966D01*
X-2137213Y420985D01*
X-2189806Y368392D01*
X-2184218Y364104D01*
X-2165876Y356506D01*
X-2146193Y353915D01*
X-2036192D01*
X-2016509Y356506D01*
X-1998167Y364104D01*
X-1992579Y368392D01*
X-2045173Y420985D01*
X-2036193Y429966D01*
X-2045173Y438946D01*
X-1992579Y491539D01*
X-1998167Y495827D01*
X-2016509Y503425D01*
X-2036192Y506016D01*
D02*
G37*
G36*
X-2469192D02*
X-2549192D01*
X-2568876Y503425D01*
X-2587218Y495827D01*
X-2592806Y491539D01*
X-2540213Y438946D01*
X-2549193Y429965D01*
X-2540213Y420985D01*
X-2592806Y368392D01*
X-2587218Y364104D01*
X-2568876Y356506D01*
X-2549192Y353915D01*
X-2469192D01*
X-2449509Y356506D01*
X-2431167Y364104D01*
X-2425579Y368391D01*
X-2478173Y420985D01*
X-2469193Y429965D01*
X-2478173Y438946D01*
X-2425579Y491539D01*
X-2431167Y495827D01*
X-2449509Y503425D01*
X-2469192Y506016D01*
D02*
G37*
G36*
X-1702596Y373565D02*
X-1723689D01*
X-1743176Y365494D01*
X-1758090Y350579D01*
X-1766162Y331092D01*
Y309999D01*
X-1758090Y290512D01*
X-1743176Y275597D01*
X-1723689Y267526D01*
X-1702596D01*
X-1683109Y275597D01*
X-1668194Y290512D01*
X-1660122Y309999D01*
Y331092D01*
X-1668194Y350579D01*
X-1683109Y365494D01*
X-1702596Y373565D01*
D02*
G37*
G36*
X-1847376D02*
X-1868469D01*
X-1887956Y365494D01*
X-1902870Y350579D01*
X-1910942Y331092D01*
Y309999D01*
X-1902870Y290512D01*
X-1887956Y275597D01*
X-1868469Y267526D01*
X-1847376D01*
X-1827889Y275597D01*
X-1812974Y290512D01*
X-1804902Y309999D01*
Y331092D01*
X-1812974Y350579D01*
X-1827889Y365494D01*
X-1847376Y373565D01*
D02*
G37*
G36*
X-2130749Y339466D02*
X-2151635D01*
X-2170931Y331473D01*
X-2185700Y316704D01*
X-2193692Y297409D01*
Y276523D01*
X-2185700Y257227D01*
X-2170931Y242458D01*
X-2151635Y234466D01*
X-2130749D01*
X-2111453Y242458D01*
X-2096685Y257227D01*
X-2088692Y276523D01*
Y297409D01*
X-2096685Y316704D01*
X-2111453Y331473D01*
X-2130749Y339466D01*
D02*
G37*
G36*
X2835056Y331939D02*
X2816624D01*
X2798821Y327169D01*
X2782859Y317953D01*
X2769826Y304920D01*
X2760610Y288958D01*
X2755840Y271155D01*
Y252723D01*
X2760610Y234920D01*
X2769826Y218958D01*
X2782859Y205925D01*
X2798821Y196710D01*
X2816624Y191939D01*
X2835056D01*
X2852859Y196710D01*
X2868821Y205925D01*
X2881854Y218958D01*
X2891069Y234920D01*
X2895840Y252723D01*
Y271155D01*
X2891069Y288958D01*
X2881854Y304920D01*
X2868821Y317953D01*
X2852859Y327169D01*
X2835056Y331939D01*
D02*
G37*
G36*
X2043904Y289745D02*
X2022811D01*
X2003324Y281674D01*
X1988410Y266759D01*
X1980338Y247272D01*
Y226179D01*
X1988410Y206692D01*
X2003324Y191777D01*
X2022811Y183705D01*
X2043904D01*
X2063391Y191777D01*
X2078306Y206692D01*
X2086378Y226179D01*
Y247272D01*
X2078306Y266759D01*
X2063391Y281674D01*
X2043904Y289745D01*
D02*
G37*
G36*
X-894876Y284665D02*
X-915969D01*
X-935456Y276594D01*
X-950370Y261679D01*
X-958442Y242192D01*
Y221099D01*
X-950370Y201612D01*
X-935456Y186697D01*
X-915969Y178625D01*
X-894876D01*
X-875389Y186697D01*
X-860474Y201612D01*
X-852402Y221099D01*
Y242192D01*
X-860474Y261679D01*
X-875389Y276594D01*
X-894876Y284665D01*
D02*
G37*
G36*
X-632074Y119060D02*
X-653166D01*
X-672653Y110988D01*
X-687568Y96073D01*
X-695640Y76586D01*
Y55494D01*
X-687568Y36007D01*
X-672653Y21092D01*
X-653166Y13020D01*
X-632074D01*
X-612587Y21092D01*
X-597672Y36007D01*
X-589600Y55494D01*
Y76586D01*
X-597672Y96073D01*
X-612587Y110988D01*
X-632074Y119060D01*
D02*
G37*
G36*
X-1085376Y114485D02*
X-1106469D01*
X-1125956Y106414D01*
X-1140870Y91499D01*
X-1148942Y72012D01*
Y50919D01*
X-1140870Y31432D01*
X-1125956Y16517D01*
X-1106469Y8446D01*
X-1085376D01*
X-1065889Y16517D01*
X-1050974Y31432D01*
X-1042902Y50919D01*
Y72012D01*
X-1050974Y91499D01*
X-1065889Y106414D01*
X-1085376Y114485D01*
D02*
G37*
G36*
X1459704Y181005D02*
X1438611D01*
X1419124Y172934D01*
X1404210Y158019D01*
X1396138Y138532D01*
Y117439D01*
X1404210Y97952D01*
X1418866Y83295D01*
X1404210Y68639D01*
X1396138Y49152D01*
Y28059D01*
X1404210Y8572D01*
X1419124Y-6343D01*
X1438611Y-14414D01*
X1459704D01*
X1479191Y-6343D01*
X1494106Y8572D01*
X1502178Y28059D01*
Y49152D01*
X1494106Y68639D01*
X1479449Y83295D01*
X1494106Y97952D01*
X1502178Y117439D01*
Y138532D01*
X1494106Y158019D01*
X1479191Y172934D01*
X1459704Y181005D01*
D02*
G37*
G36*
X1332704Y91625D02*
X1311611D01*
X1292124Y83554D01*
X1277210Y68639D01*
X1269138Y49152D01*
Y28059D01*
X1277210Y8572D01*
X1292124Y-6343D01*
X1311611Y-14414D01*
X1332704D01*
X1352191Y-6343D01*
X1367106Y8572D01*
X1375178Y28059D01*
Y49152D01*
X1367106Y68639D01*
X1352191Y83554D01*
X1332704Y91625D01*
D02*
G37*
G36*
X1205704D02*
X1184611D01*
X1165124Y83554D01*
X1150210Y68639D01*
X1142138Y49152D01*
Y28059D01*
X1150210Y8572D01*
X1165124Y-6343D01*
X1184611Y-14414D01*
X1205704D01*
X1225191Y-6343D01*
X1240106Y8572D01*
X1248178Y28059D01*
Y49152D01*
X1240106Y68639D01*
X1225191Y83554D01*
X1205704Y91625D01*
D02*
G37*
G36*
X1078704D02*
X1057611D01*
X1038124Y83554D01*
X1023210Y68639D01*
X1015138Y49152D01*
Y28059D01*
X1023210Y8572D01*
X1038124Y-6343D01*
X1057611Y-14414D01*
X1078704D01*
X1098191Y-6343D01*
X1113106Y8572D01*
X1121178Y28059D01*
Y49152D01*
X1113106Y68639D01*
X1098191Y83554D01*
X1078704Y91625D01*
D02*
G37*
G36*
X1921984Y5265D02*
X1900891D01*
X1881404Y-2806D01*
X1866490Y-17721D01*
X1858418Y-37208D01*
Y-58301D01*
X1866490Y-77788D01*
X1881404Y-92703D01*
X1900891Y-100774D01*
X1921984D01*
X1941471Y-92703D01*
X1956386Y-77788D01*
X1964458Y-58301D01*
Y-37208D01*
X1956386Y-17721D01*
X1941471Y-2806D01*
X1921984Y5265D01*
D02*
G37*
G36*
X-785656Y-2355D02*
X-806749D01*
X-826236Y-10426D01*
X-841150Y-25341D01*
X-849222Y-44828D01*
Y-65921D01*
X-841150Y-85408D01*
X-826236Y-100323D01*
X-806749Y-108394D01*
X-785656D01*
X-766169Y-100323D01*
X-751254Y-85408D01*
X-743182Y-65921D01*
Y-44828D01*
X-751254Y-25341D01*
X-766169Y-10426D01*
X-785656Y-2355D01*
D02*
G37*
G36*
X865344Y-101415D02*
X844251D01*
X824764Y-109486D01*
X809850Y-124401D01*
X801778Y-143888D01*
Y-164981D01*
X809850Y-184468D01*
X824764Y-199383D01*
X844251Y-207455D01*
X865344D01*
X884831Y-199383D01*
X899746Y-184468D01*
X907818Y-164981D01*
Y-143888D01*
X899746Y-124401D01*
X884831Y-109486D01*
X865344Y-101415D01*
D02*
G37*
G36*
X-1290554Y-119085D02*
X-1311647D01*
X-1331133Y-127156D01*
X-1346048Y-142071D01*
X-1354120Y-161558D01*
Y-182651D01*
X-1346048Y-202138D01*
X-1331133Y-217053D01*
X-1311647Y-225125D01*
X-1290554D01*
X-1271067Y-217053D01*
X-1256152Y-202138D01*
X-1248080Y-182651D01*
Y-161558D01*
X-1256152Y-142071D01*
X-1271067Y-127156D01*
X-1290554Y-119085D01*
D02*
G37*
G36*
X634204Y-210635D02*
X613111D01*
X593624Y-218706D01*
X578710Y-233621D01*
X570638Y-253108D01*
Y-274201D01*
X578710Y-293688D01*
X593624Y-308603D01*
X613111Y-316674D01*
X634204D01*
X653691Y-308603D01*
X668606Y-293688D01*
X676678Y-274201D01*
Y-253108D01*
X668606Y-233621D01*
X653691Y-218706D01*
X634204Y-210635D01*
D02*
G37*
G36*
X-2130749Y-238534D02*
X-2151635D01*
X-2170931Y-246527D01*
X-2185700Y-261296D01*
X-2193692Y-280592D01*
Y-301477D01*
X-2185700Y-320773D01*
X-2170931Y-335542D01*
X-2151635Y-343534D01*
X-2130749D01*
X-2111453Y-335542D01*
X-2096685Y-320773D01*
X-2088692Y-301477D01*
Y-280592D01*
X-2096685Y-261296D01*
X-2111453Y-246527D01*
X-2130749Y-238534D01*
D02*
G37*
G36*
X-1650614Y-247360D02*
X-1671706D01*
X-1691193Y-255432D01*
X-1706108Y-270347D01*
X-1714180Y-289834D01*
Y-310926D01*
X-1706108Y-330413D01*
X-1691193Y-345328D01*
X-1671706Y-353400D01*
X-1650614D01*
X-1631127Y-345328D01*
X-1616212Y-330413D01*
X-1608140Y-310926D01*
Y-289834D01*
X-1616212Y-270347D01*
X-1631127Y-255432D01*
X-1650614Y-247360D01*
D02*
G37*
G36*
X-1974618Y-390421D02*
X-2018232Y-434035D01*
X-1974619Y-477648D01*
X-1970331Y-472060D01*
X-1962733Y-453718D01*
X-1960142Y-434035D01*
X-1962733Y-414351D01*
X-1970331Y-396009D01*
X-1974618Y-390421D01*
D02*
G37*
G36*
X-2610766Y-390422D02*
X-2615054Y-396009D01*
X-2622652Y-414351D01*
X-2625243Y-434035D01*
X-2622652Y-453718D01*
X-2615054Y-472060D01*
X-2610766Y-477648D01*
X-2567153Y-434035D01*
X-2610766Y-390422D01*
D02*
G37*
G36*
X-2207766Y-390421D02*
X-2212054Y-396009D01*
X-2219652Y-414351D01*
X-2222243Y-434035D01*
X-2219652Y-453718D01*
X-2212054Y-472060D01*
X-2207766Y-477648D01*
X-2164153Y-434035D01*
X-2207766Y-390421D01*
D02*
G37*
G36*
X-2407619D02*
X-2451232Y-434035D01*
X-2407619Y-477649D01*
X-2403331Y-472060D01*
X-2395733Y-453718D01*
X-2393142Y-434035D01*
X-2395733Y-414351D01*
X-2403331Y-396009D01*
X-2407619Y-390421D01*
D02*
G37*
G36*
X-1650614Y-374360D02*
X-1671706D01*
X-1691193Y-382432D01*
X-1706108Y-397347D01*
X-1714180Y-416834D01*
Y-437926D01*
X-1706108Y-457413D01*
X-1691193Y-472328D01*
X-1671706Y-480400D01*
X-1650614D01*
X-1631127Y-472328D01*
X-1616212Y-457413D01*
X-1608140Y-437926D01*
Y-416834D01*
X-1616212Y-397347D01*
X-1631127Y-382432D01*
X-1650614Y-374360D01*
D02*
G37*
G36*
X-2036192Y-357984D02*
X-2146193D01*
X-2165876Y-360575D01*
X-2184218Y-368173D01*
X-2189806Y-372461D01*
X-2137212Y-425055D01*
X-2146193Y-434035D01*
X-2137212Y-443015D01*
X-2189806Y-495609D01*
X-2184218Y-499896D01*
X-2165876Y-507494D01*
X-2146193Y-510085D01*
X-2036192D01*
X-2016509Y-507494D01*
X-1998167Y-499896D01*
X-1992579Y-495608D01*
X-2045172Y-443015D01*
X-2036192Y-434035D01*
X-2045172Y-425055D01*
X-1992579Y-372461D01*
X-1998167Y-368173D01*
X-2016509Y-360575D01*
X-2036192Y-357984D01*
D02*
G37*
G36*
X-2469192D02*
X-2549192D01*
X-2568876Y-360575D01*
X-2587218Y-368173D01*
X-2592806Y-372461D01*
X-2540212Y-425055D01*
X-2549193Y-434035D01*
X-2540212Y-443015D01*
X-2592806Y-495609D01*
X-2587218Y-499896D01*
X-2568876Y-507494D01*
X-2549192Y-510085D01*
X-2469192D01*
X-2449509Y-507494D01*
X-2431167Y-499896D01*
X-2425579Y-495609D01*
X-2478173Y-443015D01*
X-2469193Y-434035D01*
X-2478173Y-425055D01*
X-2425579Y-372461D01*
X-2431167Y-368173D01*
X-2449509Y-360575D01*
X-2469192Y-357984D01*
D02*
G37*
G36*
X232506Y-414475D02*
X211414D01*
X191927Y-422547D01*
X177012Y-437461D01*
X168940Y-456948D01*
Y-478041D01*
X177012Y-497528D01*
X191927Y-512443D01*
X211414Y-520515D01*
X232506D01*
X251993Y-512443D01*
X266908Y-497528D01*
X274980Y-478041D01*
Y-456948D01*
X266908Y-437461D01*
X251993Y-422547D01*
X232506Y-414475D01*
D02*
G37*
G36*
X1921984Y-218255D02*
X1900891D01*
X1881404Y-226326D01*
X1866490Y-241241D01*
X1858418Y-260728D01*
Y-281821D01*
X1866490Y-301308D01*
X1881404Y-316223D01*
X1888137Y-319011D01*
Y-332758D01*
X1881404Y-335546D01*
X1866490Y-350461D01*
X1858418Y-369948D01*
Y-391041D01*
X1866490Y-410528D01*
X1881404Y-425443D01*
X1888137Y-428231D01*
Y-441978D01*
X1881404Y-444766D01*
X1866490Y-459681D01*
X1858418Y-479168D01*
Y-500261D01*
X1866490Y-519748D01*
X1881404Y-534663D01*
X1900891Y-542734D01*
X1921984D01*
X1941471Y-534663D01*
X1956386Y-519748D01*
X1964458Y-500261D01*
Y-479168D01*
X1956386Y-459681D01*
X1941471Y-444766D01*
X1934739Y-441978D01*
Y-428231D01*
X1941471Y-425443D01*
X1956386Y-410528D01*
X1964458Y-391041D01*
Y-369948D01*
X1956386Y-350461D01*
X1941471Y-335546D01*
X1934739Y-332758D01*
Y-319011D01*
X1941471Y-316223D01*
X1956386Y-301308D01*
X1964458Y-281821D01*
Y-260728D01*
X1956386Y-241241D01*
X1941471Y-226326D01*
X1921984Y-218255D01*
D02*
G37*
G36*
X-394518Y-452219D02*
X-415611D01*
X-435098Y-460291D01*
X-450013Y-475206D01*
X-458084Y-494693D01*
Y-515785D01*
X-450013Y-535272D01*
X-435098Y-550187D01*
X-415611Y-558259D01*
X-394518D01*
X-375031Y-550187D01*
X-360116Y-535272D01*
X-352045Y-515785D01*
Y-494693D01*
X-360116Y-475206D01*
X-375031Y-460291D01*
X-394518Y-452219D01*
D02*
G37*
G36*
X-526576D02*
X-547669D01*
X-567156Y-460291D01*
X-582070Y-475206D01*
X-590142Y-494693D01*
Y-515785D01*
X-582070Y-535272D01*
X-567156Y-550187D01*
X-547669Y-558259D01*
X-526576D01*
X-507089Y-550187D01*
X-492174Y-535272D01*
X-484102Y-515785D01*
Y-494693D01*
X-492174Y-475206D01*
X-507089Y-460291D01*
X-526576Y-452219D01*
D02*
G37*
G36*
X2835056Y-468061D02*
X2816624D01*
X2798821Y-472831D01*
X2782859Y-482047D01*
X2769826Y-495080D01*
X2760610Y-511042D01*
X2755840Y-528845D01*
Y-547277D01*
X2760610Y-565080D01*
X2769826Y-581042D01*
X2782859Y-594075D01*
X2798821Y-603290D01*
X2816624Y-608061D01*
X2835056D01*
X2852859Y-603290D01*
X2868821Y-594075D01*
X2881854Y-581042D01*
X2891069Y-565080D01*
X2895840Y-547277D01*
Y-528845D01*
X2891069Y-511042D01*
X2881854Y-495080D01*
X2868821Y-482047D01*
X2852859Y-472831D01*
X2835056Y-468061D01*
D02*
G37*
G36*
X103456Y-510466D02*
X82363D01*
X62876Y-518538D01*
X47961Y-533453D01*
X39889Y-552940D01*
Y-574033D01*
X47961Y-593520D01*
X62876Y-608434D01*
X82363Y-616506D01*
X103456D01*
X122943Y-608434D01*
X137857Y-593520D01*
X145929Y-574033D01*
Y-552940D01*
X137857Y-533453D01*
X122943Y-518538D01*
X103456Y-510466D01*
D02*
G37*
G36*
X-1331756Y-530675D02*
X-1352849D01*
X-1372336Y-538746D01*
X-1387250Y-553661D01*
X-1395322Y-573148D01*
Y-594241D01*
X-1387250Y-613728D01*
X-1372336Y-628643D01*
X-1352849Y-636714D01*
X-1331756D01*
X-1312269Y-628643D01*
X-1297354Y-613728D01*
X-1289282Y-594241D01*
Y-573148D01*
X-1297354Y-553661D01*
X-1312269Y-538746D01*
X-1331756Y-530675D01*
D02*
G37*
G36*
X-1632834Y-542000D02*
X-1653926D01*
X-1673413Y-550072D01*
X-1688328Y-564987D01*
X-1696400Y-584474D01*
Y-605566D01*
X-1688328Y-625053D01*
X-1673413Y-639968D01*
X-1653926Y-648040D01*
X-1632834D01*
X-1613347Y-639968D01*
X-1598432Y-625053D01*
X-1590360Y-605566D01*
Y-584474D01*
X-1598432Y-564987D01*
X-1613347Y-550072D01*
X-1632834Y-542000D01*
D02*
G37*
G36*
X-330996Y-558615D02*
X-352089D01*
X-371576Y-566686D01*
X-386490Y-581601D01*
X-394562Y-601088D01*
Y-622181D01*
X-386490Y-641668D01*
X-371576Y-656583D01*
X-352089Y-664654D01*
X-330996D01*
X-311509Y-656583D01*
X-296594Y-641668D01*
X-288522Y-622181D01*
Y-601088D01*
X-296594Y-581601D01*
X-311509Y-566686D01*
X-330996Y-558615D01*
D02*
G37*
G36*
X-2230916Y-578935D02*
X-2252009D01*
X-2271496Y-587006D01*
X-2286410Y-601921D01*
X-2294482Y-621408D01*
Y-642501D01*
X-2286410Y-661988D01*
X-2271496Y-676903D01*
X-2252009Y-684974D01*
X-2230916D01*
X-2211429Y-676903D01*
X-2196514Y-661988D01*
X-2188442Y-642501D01*
Y-621408D01*
X-2196514Y-601921D01*
X-2211429Y-587006D01*
X-2230916Y-578935D01*
D02*
G37*
G36*
X-182494Y-579440D02*
X-203586D01*
X-223073Y-587512D01*
X-237988Y-602427D01*
X-246060Y-621914D01*
Y-643006D01*
X-237988Y-662493D01*
X-223073Y-677408D01*
X-203586Y-685480D01*
X-182494D01*
X-163007Y-677408D01*
X-148092Y-662493D01*
X-140020Y-643006D01*
Y-621914D01*
X-148092Y-602427D01*
X-163007Y-587512D01*
X-182494Y-579440D01*
D02*
G37*
G36*
X1921984Y-589095D02*
X1900891D01*
X1881404Y-597166D01*
X1866490Y-612081D01*
X1858418Y-631568D01*
Y-652661D01*
X1866490Y-672148D01*
X1881404Y-687063D01*
X1900891Y-695134D01*
X1921984D01*
X1941471Y-687063D01*
X1956386Y-672148D01*
X1964458Y-652661D01*
Y-631568D01*
X1956386Y-612081D01*
X1941471Y-597166D01*
X1921984Y-589095D01*
D02*
G37*
G36*
X1556224Y-639895D02*
X1535131D01*
X1515644Y-647966D01*
X1500730Y-662881D01*
X1492658Y-682368D01*
Y-703461D01*
X1500730Y-722948D01*
X1515644Y-737863D01*
X1535131Y-745934D01*
X1556224D01*
X1575711Y-737863D01*
X1590626Y-722948D01*
X1598698Y-703461D01*
Y-682368D01*
X1590626Y-662881D01*
X1575711Y-647966D01*
X1556224Y-639895D01*
D02*
G37*
G36*
X-1331756Y-657675D02*
X-1352849D01*
X-1372336Y-665746D01*
X-1387250Y-680661D01*
X-1395322Y-700148D01*
Y-721241D01*
X-1387250Y-740728D01*
X-1372336Y-755643D01*
X-1352849Y-763714D01*
X-1331756D01*
X-1312269Y-755643D01*
X-1297354Y-740728D01*
X-1289282Y-721241D01*
Y-700148D01*
X-1297354Y-680661D01*
X-1312269Y-665746D01*
X-1331756Y-657675D01*
D02*
G37*
G36*
X-508796Y-667835D02*
X-529889D01*
X-549376Y-675906D01*
X-564290Y-690821D01*
X-572362Y-710308D01*
Y-731401D01*
X-564290Y-750888D01*
X-549376Y-765803D01*
X-529889Y-773874D01*
X-508796D01*
X-489309Y-765803D01*
X-474394Y-750888D01*
X-466322Y-731401D01*
Y-710308D01*
X-474394Y-690821D01*
X-489309Y-675906D01*
X-508796Y-667835D01*
D02*
G37*
G36*
X-590076Y-758959D02*
X-611169D01*
X-630656Y-767030D01*
X-645570Y-781945D01*
X-653642Y-801432D01*
Y-822525D01*
X-645570Y-842012D01*
X-630656Y-856927D01*
X-611169Y-864999D01*
X-590076D01*
X-570589Y-856927D01*
X-555674Y-842012D01*
X-547602Y-822525D01*
Y-801432D01*
X-555674Y-781945D01*
X-570589Y-767030D01*
X-590076Y-758959D01*
D02*
G37*
G36*
X-1783876Y-815155D02*
X-1804969D01*
X-1824456Y-823226D01*
X-1839370Y-838141D01*
X-1847442Y-857628D01*
Y-878721D01*
X-1839370Y-898208D01*
X-1824456Y-913123D01*
X-1804969Y-921195D01*
X-1783876D01*
X-1764389Y-913123D01*
X-1749474Y-898208D01*
X-1741402Y-878721D01*
Y-857628D01*
X-1749474Y-838141D01*
X-1764389Y-823226D01*
X-1783876Y-815155D01*
D02*
G37*
G36*
X-1179356Y-911675D02*
X-1200449D01*
X-1219936Y-919746D01*
X-1234850Y-934661D01*
X-1242922Y-954148D01*
Y-975241D01*
X-1234850Y-994728D01*
X-1219936Y-1009643D01*
X-1200449Y-1017714D01*
X-1179356D01*
X-1159869Y-1009643D01*
X-1144954Y-994728D01*
X-1136882Y-975241D01*
Y-954148D01*
X-1144954Y-934661D01*
X-1159869Y-919746D01*
X-1179356Y-911675D01*
D02*
G37*
G36*
X-1331756D02*
X-1352849D01*
X-1372336Y-919746D01*
X-1387250Y-934661D01*
X-1395322Y-954148D01*
Y-975241D01*
X-1387250Y-994728D01*
X-1372336Y-1009643D01*
X-1352849Y-1017714D01*
X-1331756D01*
X-1312269Y-1009643D01*
X-1297354Y-994728D01*
X-1289282Y-975241D01*
Y-954148D01*
X-1297354Y-934661D01*
X-1312269Y-919746D01*
X-1331756Y-911675D01*
D02*
G37*
G36*
X-1783876Y-942155D02*
X-1804969D01*
X-1824456Y-950226D01*
X-1839370Y-965141D01*
X-1847442Y-984628D01*
Y-1005721D01*
X-1839370Y-1025208D01*
X-1824456Y-1040123D01*
X-1804969Y-1048194D01*
X-1783876D01*
X-1764389Y-1040123D01*
X-1749474Y-1025208D01*
X-1741402Y-1005721D01*
Y-984628D01*
X-1749474Y-965141D01*
X-1764389Y-950226D01*
X-1783876Y-942155D01*
D02*
G37*
G36*
X2600076Y-1138055D02*
X2573324D01*
X2547484Y-1144978D01*
X2524316Y-1158354D01*
X2523838Y-1158833D01*
X2586699Y-1221694D01*
X2649562Y-1158832D01*
X2649084Y-1158354D01*
X2625916Y-1144978D01*
X2600076Y-1138055D01*
D02*
G37*
G36*
X2854076D02*
X2827324D01*
X2801484Y-1144978D01*
X2778316Y-1158354D01*
X2777838Y-1158833D01*
X2840699Y-1221694D01*
X2903562Y-1158832D01*
X2903084Y-1158354D01*
X2879916Y-1144978D01*
X2854076Y-1138055D01*
D02*
G37*
%LPD*%
D41*
X-2091192Y429965D02*
D03*
Y-434035D02*
D03*
D42*
X-2509192Y429965D02*
D03*
Y-434035D02*
D03*
D43*
X-2141192Y-291034D02*
D03*
Y286966D02*
D03*
D44*
X2825840Y-538061D02*
D03*
Y261939D02*
D03*
D45*
X2586700Y1260345D02*
D03*
Y-1239655D02*
D03*
X2840700D02*
D03*
Y1260345D02*
D03*
X-969300D02*
D03*
X-715300D02*
D03*
X-969300Y-1239655D02*
D03*
X2078700Y1260345D02*
D03*
Y-1239655D02*
D03*
X2332700Y1260345D02*
D03*
Y-1239655D02*
D03*
X554700D02*
D03*
X808700D02*
D03*
X300700D02*
D03*
X1062700D02*
D03*
X1316700D02*
D03*
X46700D02*
D03*
X-207300D02*
D03*
X-461300D02*
D03*
X-715300D02*
D03*
X1570700D02*
D03*
X1824700D02*
D03*
Y1260345D02*
D03*
X1570700D02*
D03*
X-461300D02*
D03*
X1316700D02*
D03*
X1062700D02*
D03*
X808700D02*
D03*
X-207300D02*
D03*
X554700D02*
D03*
X46700D02*
D03*
X300700D02*
D03*
D46*
X-58420Y-693420D02*
D03*
X-193040Y-632460D02*
D03*
X-261620Y-566420D02*
D03*
X-642620Y66040D02*
D03*
X-581660Y259080D02*
D03*
X1682840Y-817561D02*
D03*
X-1794422Y-868175D02*
D03*
X1990178Y648205D02*
D03*
X-1553122Y975865D02*
D03*
X-1677582Y650745D02*
D03*
X-1095922Y61465D02*
D03*
X-796202Y-55375D02*
D03*
X1258658Y-497625D02*
D03*
X1385658D02*
D03*
X623658Y-263655D02*
D03*
X1545678Y-692915D02*
D03*
X1911438Y-642115D02*
D03*
X854798Y-154435D02*
D03*
X-537122Y-395735D02*
D03*
Y-505239D02*
D03*
X-1342302Y-964695D02*
D03*
X-966382Y-637035D02*
D03*
X-1794422Y-995175D02*
D03*
X-905422Y231645D02*
D03*
X47078Y630425D02*
D03*
X825500Y-50800D02*
D03*
X1449158Y127986D02*
D03*
X-305982Y729485D02*
D03*
X1258658Y-388115D02*
D03*
X1385658D02*
D03*
X1911438Y-380495D02*
D03*
Y-271275D02*
D03*
Y-47755D02*
D03*
X2033358Y236725D02*
D03*
X557240Y-467495D02*
D03*
X1911438Y-489715D02*
D03*
X1322158Y38605D02*
D03*
X1449158D02*
D03*
X1195158D02*
D03*
X1068158D02*
D03*
X-2147482Y963165D02*
D03*
X-2302422Y726945D02*
D03*
X-2241462Y-631955D02*
D03*
X-966382Y-510035D02*
D03*
Y-383035D02*
D03*
X-1926502Y-634495D02*
D03*
Y-748795D02*
D03*
Y-520195D02*
D03*
X-1189902Y-964695D02*
D03*
X-1342302Y-710695D02*
D03*
Y-583695D02*
D03*
X-1643380Y-595020D02*
D03*
X-1661160Y-427380D02*
D03*
Y-300380D02*
D03*
X-1857922Y320545D02*
D03*
X-1713142D02*
D03*
Y447545D02*
D03*
X-1857922D02*
D03*
X-1573442Y-1071375D02*
D03*
X-1766482Y-93475D02*
D03*
X-1769022Y208785D02*
D03*
X92909Y-563486D02*
D03*
X-1301100Y589895D02*
D03*
X-1502700D02*
D03*
X-519342Y-720855D02*
D03*
X-600622Y-811979D02*
D03*
X-1301100Y-172105D02*
D03*
X-392342Y627885D02*
D03*
Y500885D02*
D03*
X-405064Y-505239D02*
D03*
X-341542Y-611635D02*
D03*
X221960Y-467495D02*
D03*
X684240Y-729115D02*
D03*
X1164678Y724405D02*
D03*
X387438Y561845D02*
D03*
%TF.MD5,5f90df6dac47c64d9d20b25a7c331641*%
M02*
