%TF.GenerationSoftware,Altium Limited,Altium Designer,25.4.2 (15)*%
G04 Layer_Color=8388736*
%FSLAX45Y45*%
%MOMM*%
%TF.SameCoordinates,D428E1E4-D561-4EBD-83AA-0298DF20FA0A*%
%TF.FilePolarity,Negative*%
%TF.FileFunction,Soldermask,Top*%
%TF.Part,Single*%
G01*
G75*
%TA.AperFunction,SMDPad,CuDef*%
%ADD10R,1.20000X1.80000*%
%ADD11R,0.60000X1.55000*%
%ADD12R,0.60000X0.95000*%
%ADD13R,0.65000X0.55000*%
G04:AMPARAMS|DCode=14|XSize=0.4mm|YSize=0.8mm|CornerRadius=0mm|HoleSize=0mm|Usage=FLASHONLY|Rotation=225.000|XOffset=0mm|YOffset=0mm|HoleType=Round|Shape=Rectangle|*
%AMROTATEDRECTD14*
4,1,4,-0.14142,0.42426,0.42426,-0.14142,0.14142,-0.42426,-0.42426,0.14142,-0.14142,0.42426,0.0*
%
%ADD14ROTATEDRECTD14*%

%ADD15R,1.05000X2.00000*%
%ADD16R,1.30000X1.20000*%
%TA.AperFunction,ConnectorPad*%
%ADD17R,1.15000X0.60000*%
%ADD18R,1.15000X0.30000*%
%ADD19R,2.00000X1.20000*%
%ADD20R,1.40000X1.20000*%
%ADD21R,1.30000X0.70000*%
%TA.AperFunction,SMDPad,CuDef*%
%ADD22R,1.13000X1.43000*%
%ADD23R,0.40000X0.80000*%
%ADD24P,7.91960X4X180.0*%
G04:AMPARAMS|DCode=25|XSize=0.3mm|YSize=0.55mm|CornerRadius=0mm|HoleSize=0mm|Usage=FLASHONLY|Rotation=225.000|XOffset=0mm|YOffset=0mm|HoleType=Round|Shape=Rectangle|*
%AMROTATEDRECTD25*
4,1,4,-0.08839,0.30052,0.30052,-0.08839,0.08839,-0.30052,-0.30052,0.08839,-0.08839,0.30052,0.0*
%
%ADD25ROTATEDRECTD25*%

G04:AMPARAMS|DCode=26|XSize=0.3mm|YSize=0.55mm|CornerRadius=0mm|HoleSize=0mm|Usage=FLASHONLY|Rotation=135.000|XOffset=0mm|YOffset=0mm|HoleType=Round|Shape=Rectangle|*
%AMROTATEDRECTD26*
4,1,4,0.30052,0.08839,-0.08839,-0.30052,-0.30052,-0.08839,0.08839,0.30052,0.30052,0.08839,0.0*
%
%ADD26ROTATEDRECTD26*%

%ADD27R,0.62000X0.66000*%
G04:AMPARAMS|DCode=28|XSize=0.62mm|YSize=0.66mm|CornerRadius=0mm|HoleSize=0mm|Usage=FLASHONLY|Rotation=315.000|XOffset=0mm|YOffset=0mm|HoleType=Round|Shape=Rectangle|*
%AMROTATEDRECTD28*
4,1,4,-0.45255,-0.01414,0.01414,0.45255,0.45255,0.01414,-0.01414,-0.45255,-0.45255,-0.01414,0.0*
%
%ADD28ROTATEDRECTD28*%

%ADD29R,0.66000X0.62000*%
G04:AMPARAMS|DCode=30|XSize=0.55mm|YSize=0.65mm|CornerRadius=0mm|HoleSize=0mm|Usage=FLASHONLY|Rotation=225.000|XOffset=0mm|YOffset=0mm|HoleType=Round|Shape=Rectangle|*
%AMROTATEDRECTD30*
4,1,4,-0.03535,0.42426,0.42426,-0.03535,0.03535,-0.42426,-0.42426,0.03535,-0.03535,0.42426,0.0*
%
%ADD30ROTATEDRECTD30*%

%ADD31R,1.45000X1.15000*%
%ADD32R,1.15000X1.45000*%
G04:AMPARAMS|DCode=33|XSize=0.62mm|YSize=0.66mm|CornerRadius=0mm|HoleSize=0mm|Usage=FLASHONLY|Rotation=225.000|XOffset=0mm|YOffset=0mm|HoleType=Round|Shape=Rectangle|*
%AMROTATEDRECTD33*
4,1,4,-0.01414,0.45255,0.45255,-0.01414,0.01414,-0.45255,-0.45255,0.01414,-0.01414,0.45255,0.0*
%
%ADD33ROTATEDRECTD33*%

%TA.AperFunction,ComponentPad*%
%ADD41O,2.10000X1.00000*%
%ADD42O,1.80000X1.00000*%
%ADD43C,0.65000*%
%ADD44C,1.00000*%
%ADD45C,1.52400*%
%TA.AperFunction,ViaPad*%
%ADD46C,0.66040*%
%TA.AperFunction,SMDPad,CuDef*%
G04:AMPARAMS|DCode=53|XSize=0.72mm|YSize=0.76mm|CornerRadius=0mm|HoleSize=0mm|Usage=FLASHONLY|Rotation=315.000|XOffset=0mm|YOffset=0mm|HoleType=Round|Shape=Rectangle|*
%AMROTATEDRECTD53*
4,1,4,-0.52326,-0.01414,0.01414,0.52326,0.52326,0.01414,-0.01414,-0.52326,-0.52326,-0.01414,0.0*
%
%ADD53ROTATEDRECTD53*%

G36*
X-893100Y-985655D02*
X-1045500D01*
Y-1239655D01*
X-1044848Y-1229709D01*
X-1039700Y-1210494D01*
X-1029754Y-1193267D01*
X-1015688Y-1179201D01*
X-998461Y-1169255D01*
X-979246Y-1164107D01*
X-959354D01*
X-940140Y-1169255D01*
X-922913Y-1179201D01*
X-908847Y-1193267D01*
X-898901Y-1210494D01*
X-893752Y-1229709D01*
X-893100Y-1239655D01*
D01*
Y-985655D01*
D02*
G37*
G36*
X-639100D02*
X-791500D01*
Y-1239655D01*
X-790848Y-1229709D01*
X-785700Y-1210494D01*
X-775754Y-1193267D01*
X-761688Y-1179201D01*
X-744461Y-1169255D01*
X-725246Y-1164107D01*
X-705354D01*
X-686140Y-1169255D01*
X-668913Y-1179201D01*
X-654847Y-1193267D01*
X-644901Y-1210494D01*
X-639752Y-1229709D01*
X-639100Y-1239655D01*
D01*
Y-985655D01*
D02*
G37*
G36*
X-385100D02*
X-537500D01*
Y-1239655D01*
X-536848Y-1229709D01*
X-531700Y-1210494D01*
X-521754Y-1193267D01*
X-507688Y-1179201D01*
X-490461Y-1169255D01*
X-471246Y-1164107D01*
X-451354D01*
X-432140Y-1169255D01*
X-414913Y-1179201D01*
X-400847Y-1193267D01*
X-390901Y-1210494D01*
X-385752Y-1229709D01*
X-385100Y-1239655D01*
D01*
Y-985655D01*
D02*
G37*
G36*
X-131100D02*
X-283500D01*
Y-1239655D01*
X-282848Y-1229709D01*
X-277700Y-1210494D01*
X-267754Y-1193267D01*
X-253688Y-1179201D01*
X-236461Y-1169255D01*
X-217246Y-1164107D01*
X-197354D01*
X-178140Y-1169255D01*
X-160913Y-1179201D01*
X-146847Y-1193267D01*
X-136901Y-1210494D01*
X-131752Y-1229709D01*
X-131100Y-1239655D01*
D01*
Y-985655D01*
D02*
G37*
G36*
X122900D02*
X-29500D01*
Y-1239655D01*
X-28848Y-1229709D01*
X-23700Y-1210494D01*
X-13754Y-1193267D01*
X312Y-1179201D01*
X17539Y-1169255D01*
X36754Y-1164107D01*
X56646D01*
X75860Y-1169255D01*
X93087Y-1179201D01*
X107153Y-1193267D01*
X117099Y-1210494D01*
X122248Y-1229709D01*
X122900Y-1239655D01*
D01*
Y-985655D01*
D02*
G37*
G36*
X376900D02*
X224500D01*
Y-1239655D01*
X225152Y-1229709D01*
X230300Y-1210494D01*
X240246Y-1193267D01*
X254312Y-1179201D01*
X271539Y-1169255D01*
X290754Y-1164107D01*
X310646D01*
X329860Y-1169255D01*
X347087Y-1179201D01*
X361153Y-1193267D01*
X371099Y-1210494D01*
X376248Y-1229709D01*
X376900Y-1239655D01*
D01*
Y-985655D01*
D02*
G37*
G36*
X630900D02*
X478500D01*
Y-1239655D01*
X479152Y-1229709D01*
X484300Y-1210494D01*
X494246Y-1193267D01*
X508312Y-1179201D01*
X525539Y-1169255D01*
X544754Y-1164107D01*
X564646D01*
X583860Y-1169255D01*
X601087Y-1179201D01*
X615153Y-1193267D01*
X625099Y-1210494D01*
X630248Y-1229709D01*
X630900Y-1239655D01*
D01*
Y-985655D01*
D02*
G37*
G36*
X884900D02*
X732500D01*
Y-1239655D01*
X733152Y-1229709D01*
X738300Y-1210494D01*
X748246Y-1193267D01*
X762312Y-1179201D01*
X779539Y-1169255D01*
X798754Y-1164107D01*
X818646D01*
X837860Y-1169255D01*
X855087Y-1179201D01*
X869153Y-1193267D01*
X879099Y-1210494D01*
X884248Y-1229709D01*
X884900Y-1239655D01*
D01*
Y-985655D01*
D02*
G37*
G36*
X-1045500Y1006345D02*
X-893100D01*
Y1260345D01*
X-893752Y1250399D01*
X-898901Y1231185D01*
X-908847Y1213958D01*
X-922913Y1199892D01*
X-940140Y1189946D01*
X-959354Y1184797D01*
X-979246D01*
X-998461Y1189946D01*
X-1015688Y1199892D01*
X-1029754Y1213958D01*
X-1039700Y1231185D01*
X-1044848Y1250399D01*
X-1045500Y1260345D01*
D01*
Y1006345D01*
D02*
G37*
G36*
X-791500D02*
X-639100D01*
Y1260345D01*
X-639752Y1250399D01*
X-644901Y1231185D01*
X-654847Y1213958D01*
X-668913Y1199892D01*
X-686140Y1189946D01*
X-705354Y1184797D01*
X-725246D01*
X-744461Y1189946D01*
X-761688Y1199892D01*
X-775754Y1213958D01*
X-785700Y1231185D01*
X-790848Y1250399D01*
X-791500Y1260345D01*
D01*
Y1006345D01*
D02*
G37*
G36*
X-537500D02*
X-385100D01*
Y1260345D01*
X-385752Y1250399D01*
X-390901Y1231185D01*
X-400847Y1213958D01*
X-414913Y1199892D01*
X-432140Y1189946D01*
X-451354Y1184797D01*
X-471246D01*
X-490461Y1189946D01*
X-507688Y1199892D01*
X-521754Y1213958D01*
X-531700Y1231185D01*
X-536848Y1250399D01*
X-537500Y1260345D01*
D01*
Y1006345D01*
D02*
G37*
G36*
X-283500D02*
X-131100D01*
Y1260345D01*
X-131752Y1250399D01*
X-136901Y1231185D01*
X-146847Y1213958D01*
X-160913Y1199892D01*
X-178140Y1189946D01*
X-197354Y1184797D01*
X-217246D01*
X-236461Y1189946D01*
X-253688Y1199892D01*
X-267754Y1213958D01*
X-277700Y1231185D01*
X-282848Y1250399D01*
X-283500Y1260345D01*
D01*
Y1006345D01*
D02*
G37*
G36*
X-29500D02*
X122900D01*
Y1260345D01*
X122248Y1250399D01*
X117099Y1231185D01*
X107153Y1213958D01*
X93087Y1199892D01*
X75860Y1189946D01*
X56646Y1184797D01*
X36754D01*
X17539Y1189946D01*
X312Y1199892D01*
X-13754Y1213958D01*
X-23700Y1231185D01*
X-28848Y1250399D01*
X-29500Y1260345D01*
D01*
Y1006345D01*
D02*
G37*
G36*
X224500D02*
X376900D01*
Y1260345D01*
X376248Y1250399D01*
X371099Y1231185D01*
X361153Y1213958D01*
X347087Y1199892D01*
X329860Y1189946D01*
X310646Y1184797D01*
X290754D01*
X271539Y1189946D01*
X254312Y1199892D01*
X240246Y1213958D01*
X230300Y1231185D01*
X225152Y1250399D01*
X224500Y1260345D01*
D01*
Y1006345D01*
D02*
G37*
G36*
X478500D02*
X630900D01*
Y1260345D01*
X630248Y1250399D01*
X625099Y1231185D01*
X615153Y1213958D01*
X601087Y1199892D01*
X583860Y1189946D01*
X564646Y1184797D01*
X544754D01*
X525539Y1189946D01*
X508312Y1199892D01*
X494246Y1213958D01*
X484300Y1231185D01*
X479152Y1250399D01*
X478500Y1260345D01*
D01*
Y1006345D01*
D02*
G37*
G36*
X732500D02*
X884900D01*
Y1260345D01*
X884248Y1250399D01*
X879099Y1231185D01*
X869153Y1213958D01*
X855087Y1199892D01*
X837860Y1189946D01*
X818646Y1184797D01*
X798754D01*
X779539Y1189946D01*
X762312Y1199892D01*
X748246Y1213958D01*
X738300Y1231185D01*
X733152Y1250399D01*
X732500Y1260345D01*
D01*
Y1006345D01*
D02*
G37*
G36*
X1138900Y-985655D02*
X986500D01*
Y-1239655D01*
X987152Y-1229709D01*
X992300Y-1210494D01*
X1002246Y-1193267D01*
X1016312Y-1179201D01*
X1033539Y-1169255D01*
X1052754Y-1164107D01*
X1072646D01*
X1091860Y-1169255D01*
X1109087Y-1179201D01*
X1123153Y-1193267D01*
X1133099Y-1210494D01*
X1138248Y-1229709D01*
X1138900Y-1239655D01*
D01*
Y-985655D01*
D02*
G37*
G36*
X1392900D02*
X1240500D01*
Y-1239655D01*
X1241152Y-1229709D01*
X1246300Y-1210494D01*
X1256246Y-1193267D01*
X1270312Y-1179201D01*
X1287539Y-1169255D01*
X1306754Y-1164107D01*
X1326646D01*
X1345860Y-1169255D01*
X1363087Y-1179201D01*
X1377153Y-1193267D01*
X1387099Y-1210494D01*
X1392248Y-1229709D01*
X1392900Y-1239655D01*
D01*
Y-985655D01*
D02*
G37*
G36*
X1646900D02*
X1494500D01*
Y-1239655D01*
X1495152Y-1229709D01*
X1500300Y-1210494D01*
X1510246Y-1193267D01*
X1524312Y-1179201D01*
X1541539Y-1169255D01*
X1560754Y-1164107D01*
X1580646D01*
X1599860Y-1169255D01*
X1617087Y-1179201D01*
X1631153Y-1193267D01*
X1641099Y-1210494D01*
X1646248Y-1229709D01*
X1646900Y-1239655D01*
D01*
Y-985655D01*
D02*
G37*
G36*
X1900900D02*
X1748500D01*
Y-1239655D01*
X1749152Y-1229709D01*
X1754300Y-1210494D01*
X1764246Y-1193267D01*
X1778312Y-1179201D01*
X1795539Y-1169255D01*
X1814754Y-1164107D01*
X1834646D01*
X1853860Y-1169255D01*
X1871087Y-1179201D01*
X1885153Y-1193267D01*
X1895099Y-1210494D01*
X1900248Y-1229709D01*
X1900900Y-1239655D01*
D01*
Y-985655D01*
D02*
G37*
G36*
X2154900D02*
X2002500D01*
Y-1239655D01*
X2003152Y-1229709D01*
X2008300Y-1210494D01*
X2018246Y-1193267D01*
X2032312Y-1179201D01*
X2049539Y-1169255D01*
X2068754Y-1164107D01*
X2088646D01*
X2107860Y-1169255D01*
X2125087Y-1179201D01*
X2139153Y-1193267D01*
X2149099Y-1210494D01*
X2154248Y-1229709D01*
X2154900Y-1239655D01*
D01*
Y-985655D01*
D02*
G37*
G36*
X2408900D02*
X2256500D01*
Y-1239655D01*
X2257152Y-1229709D01*
X2262300Y-1210494D01*
X2272246Y-1193267D01*
X2286312Y-1179201D01*
X2303539Y-1169255D01*
X2322754Y-1164107D01*
X2342646D01*
X2361860Y-1169255D01*
X2379087Y-1179201D01*
X2393153Y-1193267D01*
X2403099Y-1210494D01*
X2408248Y-1229709D01*
X2408900Y-1239655D01*
D01*
Y-985655D01*
D02*
G37*
G36*
X2662900D02*
X2510500D01*
Y-1239655D01*
X2511152Y-1229709D01*
X2516300Y-1210494D01*
X2526246Y-1193267D01*
X2540312Y-1179201D01*
X2557539Y-1169255D01*
X2576754Y-1164107D01*
X2596646D01*
X2615860Y-1169255D01*
X2633087Y-1179201D01*
X2647153Y-1193267D01*
X2657099Y-1210494D01*
X2662248Y-1229709D01*
X2662900Y-1239655D01*
D01*
Y-985655D01*
D02*
G37*
G36*
X2916900D02*
X2764500D01*
Y-1239655D01*
X2765152Y-1229709D01*
X2770300Y-1210494D01*
X2780246Y-1193267D01*
X2794312Y-1179201D01*
X2811539Y-1169255D01*
X2830754Y-1164107D01*
X2850646D01*
X2869860Y-1169255D01*
X2887087Y-1179201D01*
X2901153Y-1193267D01*
X2911099Y-1210494D01*
X2916248Y-1229709D01*
X2916900Y-1239655D01*
D01*
Y-985655D01*
D02*
G37*
G36*
X986500Y1006345D02*
X1138900D01*
Y1260345D01*
X1138248Y1250399D01*
X1133099Y1231185D01*
X1123153Y1213958D01*
X1109087Y1199892D01*
X1091860Y1189946D01*
X1072646Y1184797D01*
X1052754D01*
X1033539Y1189946D01*
X1016312Y1199892D01*
X1002246Y1213958D01*
X992300Y1231185D01*
X987152Y1250399D01*
X986500Y1260345D01*
D01*
Y1006345D01*
D02*
G37*
G36*
X1240500D02*
X1392900D01*
Y1260345D01*
X1392248Y1250399D01*
X1387099Y1231185D01*
X1377153Y1213958D01*
X1363087Y1199892D01*
X1345860Y1189946D01*
X1326646Y1184797D01*
X1306754D01*
X1287539Y1189946D01*
X1270312Y1199892D01*
X1256246Y1213958D01*
X1246300Y1231185D01*
X1241152Y1250399D01*
X1240500Y1260345D01*
D01*
Y1006345D01*
D02*
G37*
G36*
X1494500D02*
X1646900D01*
Y1260345D01*
X1646248Y1250399D01*
X1641099Y1231185D01*
X1631153Y1213958D01*
X1617087Y1199892D01*
X1599860Y1189946D01*
X1580646Y1184797D01*
X1560754D01*
X1541539Y1189946D01*
X1524312Y1199892D01*
X1510246Y1213958D01*
X1500300Y1231185D01*
X1495152Y1250399D01*
X1494500Y1260345D01*
D01*
Y1006345D01*
D02*
G37*
G36*
X1748500D02*
X1900900D01*
Y1260345D01*
X1900248Y1250399D01*
X1895099Y1231185D01*
X1885153Y1213958D01*
X1871087Y1199892D01*
X1853860Y1189946D01*
X1834646Y1184797D01*
X1814754D01*
X1795539Y1189946D01*
X1778312Y1199892D01*
X1764246Y1213958D01*
X1754300Y1231185D01*
X1749152Y1250399D01*
X1748500Y1260345D01*
D01*
Y1006345D01*
D02*
G37*
G36*
X2002500D02*
X2154900D01*
Y1260345D01*
X2154248Y1250399D01*
X2149099Y1231185D01*
X2139153Y1213958D01*
X2125087Y1199892D01*
X2107860Y1189946D01*
X2088646Y1184797D01*
X2068754D01*
X2049539Y1189946D01*
X2032312Y1199892D01*
X2018246Y1213958D01*
X2008300Y1231185D01*
X2003152Y1250399D01*
X2002500Y1260345D01*
D01*
Y1006345D01*
D02*
G37*
G36*
X2256500D02*
X2408900D01*
Y1260345D01*
X2408248Y1250399D01*
X2403099Y1231185D01*
X2393153Y1213958D01*
X2379087Y1199892D01*
X2361860Y1189946D01*
X2342646Y1184797D01*
X2322754D01*
X2303539Y1189946D01*
X2286312Y1199892D01*
X2272246Y1213958D01*
X2262300Y1231185D01*
X2257152Y1250399D01*
X2256500Y1260345D01*
D01*
Y1006345D01*
D02*
G37*
G36*
X2510500D02*
X2662900D01*
Y1260345D01*
X2662248Y1250399D01*
X2657099Y1231185D01*
X2647153Y1213958D01*
X2633087Y1199892D01*
X2615860Y1189946D01*
X2596646Y1184797D01*
X2576754D01*
X2557539Y1189946D01*
X2540312Y1199892D01*
X2526246Y1213958D01*
X2516300Y1231185D01*
X2511152Y1250399D01*
X2510500Y1260345D01*
D01*
Y1006345D01*
D02*
G37*
G36*
X2764500D02*
X2916900D01*
Y1260345D01*
X2916248Y1250399D01*
X2911099Y1231185D01*
X2901153Y1213958D01*
X2887087Y1199892D01*
X2869860Y1189946D01*
X2850646Y1184797D01*
X2830754D01*
X2811539Y1189946D01*
X2794312Y1199892D01*
X2780246Y1213958D01*
X2770300Y1231185D01*
X2765152Y1250399D01*
X2764500Y1260345D01*
D01*
Y1006345D01*
D02*
G37*
D10*
X-1681900Y1096395D02*
D03*
X-1221900D02*
D03*
D11*
X-1551900Y843895D02*
D03*
X-1451900D02*
D03*
X-1351900D02*
D03*
D12*
X-1375660Y-377800D02*
D03*
X-1565660D02*
D03*
X-1470660Y-612800D02*
D03*
D13*
X-2013542Y-766236D02*
D03*
X-2098542D02*
D03*
X-450602Y-394195D02*
D03*
X-365602D02*
D03*
X1630000Y-485140D02*
D03*
X1545000D02*
D03*
X-1767192Y122925D02*
D03*
X-1852192D02*
D03*
X-1767192Y-177075D02*
D03*
X-1852192D02*
D03*
X1630000Y-50800D02*
D03*
X1545000D02*
D03*
X1630000Y58420D02*
D03*
X1545000D02*
D03*
X1630000Y170180D02*
D03*
X1545000D02*
D03*
X1630000Y-601980D02*
D03*
X1545000D02*
D03*
D14*
X536694Y-201749D02*
D03*
X621547Y-116896D02*
D03*
D15*
X-2414520Y731520D02*
D03*
X-1969520D02*
D03*
D16*
X448078Y-803794D02*
D03*
X218078Y-633795D02*
D03*
X448078D02*
D03*
X218078Y-803794D02*
D03*
D17*
X-2034692Y237925D02*
D03*
Y-242075D02*
D03*
Y317925D02*
D03*
Y-322075D02*
D03*
D18*
Y-177075D02*
D03*
Y-127075D02*
D03*
Y-77075D02*
D03*
Y-27075D02*
D03*
Y22925D02*
D03*
Y72925D02*
D03*
Y122925D02*
D03*
Y172925D02*
D03*
D19*
X2825840Y-819061D02*
D03*
Y732939D02*
D03*
D20*
X1855840Y-819061D02*
D03*
Y648939D02*
D03*
D21*
X1770840Y-709061D02*
D03*
Y-599061D02*
D03*
Y-489061D02*
D03*
Y-379061D02*
D03*
Y-269061D02*
D03*
Y-159061D02*
D03*
Y-49061D02*
D03*
Y60939D02*
D03*
Y170939D02*
D03*
D22*
X-1459542Y-802135D02*
D03*
X-1636542D02*
D03*
D23*
X-2159223Y-629415D02*
D03*
X-2039222D02*
D03*
D24*
X0Y0D02*
D03*
D25*
X44194Y-433102D02*
D03*
X79549Y-397747D02*
D03*
X114905Y-362392D02*
D03*
X150260Y-327036D02*
D03*
X185615Y-291681D02*
D03*
X220970Y-256326D02*
D03*
X256326Y-220971D02*
D03*
X327036Y-150260D02*
D03*
X362391Y-114905D02*
D03*
X397747Y-79549D02*
D03*
X433102Y-44194D02*
D03*
X-44194Y433102D02*
D03*
X-79549Y397747D02*
D03*
X-114905Y362391D02*
D03*
X-150260Y327036D02*
D03*
X-185615Y291681D02*
D03*
X-220971Y256326D02*
D03*
X-256326Y220970D02*
D03*
X-291681Y185615D02*
D03*
X-327036Y150260D02*
D03*
X-362392Y114905D02*
D03*
X-397747Y79549D02*
D03*
X-433102Y44194D02*
D03*
X291681Y-185615D02*
D03*
D26*
X433102Y44194D02*
D03*
X397747Y79549D02*
D03*
X362391Y114905D02*
D03*
X327036Y150260D02*
D03*
X291681Y185615D02*
D03*
X256326Y220970D02*
D03*
X220970Y256326D02*
D03*
X185615Y291681D02*
D03*
X150260Y327036D02*
D03*
X114905Y362391D02*
D03*
X79549Y397747D02*
D03*
X44194Y433102D02*
D03*
X-433102Y-44194D02*
D03*
X-397747Y-79549D02*
D03*
X-362392Y-114905D02*
D03*
X-327036Y-150260D02*
D03*
X-291681Y-185615D02*
D03*
X-256326Y-220971D02*
D03*
X-220971Y-256326D02*
D03*
X-185615Y-291681D02*
D03*
X-150260Y-327036D02*
D03*
X-114905Y-362392D02*
D03*
X-79549Y-397747D02*
D03*
X-44194Y-433102D02*
D03*
D27*
X594478Y-729056D02*
D03*
Y-641056D02*
D03*
X40640Y-695140D02*
D03*
Y-783140D02*
D03*
X-1793240Y-677360D02*
D03*
Y-765360D02*
D03*
X1546860Y-262440D02*
D03*
Y-174440D02*
D03*
D28*
X258458Y434408D02*
D03*
X-517527Y193673D02*
D03*
X-579753Y131447D02*
D03*
X410785Y-325307D02*
D03*
X473010Y-263082D02*
D03*
X485785Y-400307D02*
D03*
X548010Y-338082D02*
D03*
D29*
X-1965367Y962940D02*
D03*
X-2053367D02*
D03*
X-1576086Y-962940D02*
D03*
X-1488086D02*
D03*
D30*
X761572Y-111332D02*
D03*
X701468Y-51228D02*
D03*
D31*
X-1795780Y-526920D02*
D03*
Y-351920D02*
D03*
X-1159422Y-392055D02*
D03*
Y-567054D02*
D03*
X1363980Y-255140D02*
D03*
Y-80140D02*
D03*
X1125220Y-260220D02*
D03*
Y-85220D02*
D03*
D32*
X-985562Y-784355D02*
D03*
X-1160562D02*
D03*
D33*
X253090Y569613D02*
D03*
X190865Y631838D02*
D03*
X-191133Y-509907D02*
D03*
X-128907Y-572133D02*
D03*
X178090Y494613D02*
D03*
X115865Y556838D02*
D03*
D41*
X-2091192Y429965D02*
D03*
Y-434035D02*
D03*
D42*
X-2509192Y429965D02*
D03*
Y-434035D02*
D03*
D43*
X-2141192Y-291034D02*
D03*
Y286966D02*
D03*
D44*
X2825840Y-538061D02*
D03*
Y261939D02*
D03*
D45*
X2586700Y1260345D02*
D03*
Y-1239655D02*
D03*
X2840700D02*
D03*
Y1260345D02*
D03*
X-969300D02*
D03*
X-715300D02*
D03*
X-969300Y-1239655D02*
D03*
X2078700Y1260345D02*
D03*
Y-1239655D02*
D03*
X2332700Y1260345D02*
D03*
Y-1239655D02*
D03*
X554700D02*
D03*
X808700D02*
D03*
X300700D02*
D03*
X1062700D02*
D03*
X1316700D02*
D03*
X46700D02*
D03*
X-207300D02*
D03*
X-461300D02*
D03*
X-715300D02*
D03*
X1570700D02*
D03*
X1824700D02*
D03*
Y1260345D02*
D03*
X1570700D02*
D03*
X-461300D02*
D03*
X1316700D02*
D03*
X1062700D02*
D03*
X808700D02*
D03*
X-207300D02*
D03*
X554700D02*
D03*
X46700D02*
D03*
X300700D02*
D03*
D46*
X-1794422Y-868175D02*
D03*
D53*
X320684Y496633D02*
D03*
%TF.MD5,80711971e76fd04f6fcf7fd02f9422f5*%
M02*
