%TF.GenerationSoftware,Altium Limited,Altium Designer,25.4.2 (15)*%
G04 Layer_Physical_Order=4*
G04 Layer_Color=16711680*
%FSLAX45Y45*%
%MOMM*%
%TF.SameCoordinates,D428E1E4-D561-4EBD-83AA-0298DF20FA0A*%
%TF.FilePolarity,Positive*%
%TF.FileFunction,Copper,L4,Bot,Signal*%
%TF.Part,Single*%
G01*
G75*
%TA.AperFunction,Conductor*%
%ADD34C,0.25400*%
%ADD35C,0.50800*%
%ADD36C,0.20000*%
%ADD38C,1.01600*%
%ADD39C,0.20378*%
%TA.AperFunction,ComponentPad*%
%ADD41O,2.10000X1.00000*%
%ADD42O,1.80000X1.00000*%
%ADD43C,0.65000*%
%ADD44C,1.00000*%
%ADD45C,1.52400*%
%TA.AperFunction,ViaPad*%
%ADD46C,0.66040*%
%TA.AperFunction,Conductor*%
%ADD47C,0.76200*%
G36*
X-893100Y-985655D02*
X-1045500D01*
Y-1239655D01*
X-1044848Y-1229709D01*
X-1039700Y-1210494D01*
X-1029754Y-1193267D01*
X-1015688Y-1179201D01*
X-998461Y-1169255D01*
X-979246Y-1164107D01*
X-959354D01*
X-940140Y-1169255D01*
X-922913Y-1179201D01*
X-908847Y-1193267D01*
X-898901Y-1210494D01*
X-893752Y-1229709D01*
X-893100Y-1239655D01*
D01*
Y-985655D01*
D02*
G37*
G36*
X-639100D02*
X-791500D01*
Y-1239655D01*
X-790848Y-1229709D01*
X-785700Y-1210494D01*
X-775754Y-1193267D01*
X-761688Y-1179201D01*
X-744461Y-1169255D01*
X-725246Y-1164107D01*
X-705354D01*
X-686140Y-1169255D01*
X-668913Y-1179201D01*
X-654847Y-1193267D01*
X-644901Y-1210494D01*
X-639752Y-1229709D01*
X-639100Y-1239655D01*
D01*
Y-985655D01*
D02*
G37*
G36*
X-385100D02*
X-537500D01*
Y-1239655D01*
X-536848Y-1229709D01*
X-531700Y-1210494D01*
X-521754Y-1193267D01*
X-507688Y-1179201D01*
X-490461Y-1169255D01*
X-471246Y-1164107D01*
X-451354D01*
X-432140Y-1169255D01*
X-414913Y-1179201D01*
X-400847Y-1193267D01*
X-390901Y-1210494D01*
X-385752Y-1229709D01*
X-385100Y-1239655D01*
D01*
Y-985655D01*
D02*
G37*
G36*
X-131100D02*
X-283500D01*
Y-1239655D01*
X-282848Y-1229709D01*
X-277700Y-1210494D01*
X-267754Y-1193267D01*
X-253688Y-1179201D01*
X-236461Y-1169255D01*
X-217246Y-1164107D01*
X-197354D01*
X-178140Y-1169255D01*
X-160913Y-1179201D01*
X-146847Y-1193267D01*
X-136901Y-1210494D01*
X-131752Y-1229709D01*
X-131100Y-1239655D01*
D01*
Y-985655D01*
D02*
G37*
G36*
X122900D02*
X-29500D01*
Y-1239655D01*
X-28848Y-1229709D01*
X-23700Y-1210494D01*
X-13754Y-1193267D01*
X312Y-1179201D01*
X17539Y-1169255D01*
X36754Y-1164107D01*
X56646D01*
X75860Y-1169255D01*
X93087Y-1179201D01*
X107153Y-1193267D01*
X117099Y-1210494D01*
X122248Y-1229709D01*
X122900Y-1239655D01*
D01*
Y-985655D01*
D02*
G37*
G36*
X376900D02*
X224500D01*
Y-1239655D01*
X225152Y-1229709D01*
X230300Y-1210494D01*
X240246Y-1193267D01*
X254312Y-1179201D01*
X271539Y-1169255D01*
X290754Y-1164107D01*
X310646D01*
X329860Y-1169255D01*
X347087Y-1179201D01*
X361153Y-1193267D01*
X371099Y-1210494D01*
X376248Y-1229709D01*
X376900Y-1239655D01*
D01*
Y-985655D01*
D02*
G37*
G36*
X630900D02*
X478500D01*
Y-1239655D01*
X479152Y-1229709D01*
X484300Y-1210494D01*
X494246Y-1193267D01*
X508312Y-1179201D01*
X525539Y-1169255D01*
X544754Y-1164107D01*
X564646D01*
X583860Y-1169255D01*
X601087Y-1179201D01*
X615153Y-1193267D01*
X625099Y-1210494D01*
X630248Y-1229709D01*
X630900Y-1239655D01*
D01*
Y-985655D01*
D02*
G37*
G36*
X884900D02*
X732500D01*
Y-1239655D01*
X733152Y-1229709D01*
X738300Y-1210494D01*
X748246Y-1193267D01*
X762312Y-1179201D01*
X779539Y-1169255D01*
X798754Y-1164107D01*
X818646D01*
X837860Y-1169255D01*
X855087Y-1179201D01*
X869153Y-1193267D01*
X879099Y-1210494D01*
X884248Y-1229709D01*
X884900Y-1239655D01*
D01*
Y-985655D01*
D02*
G37*
G36*
X-1045500Y1006345D02*
X-893100D01*
Y1260345D01*
X-893752Y1250399D01*
X-898901Y1231185D01*
X-908847Y1213958D01*
X-922913Y1199892D01*
X-940140Y1189946D01*
X-959354Y1184797D01*
X-979246D01*
X-998461Y1189946D01*
X-1015688Y1199892D01*
X-1029754Y1213958D01*
X-1039700Y1231185D01*
X-1044848Y1250399D01*
X-1045500Y1260345D01*
D01*
Y1006345D01*
D02*
G37*
G36*
X-791500D02*
X-639100D01*
Y1260345D01*
X-639752Y1250399D01*
X-644901Y1231185D01*
X-654847Y1213958D01*
X-668913Y1199892D01*
X-686140Y1189946D01*
X-705354Y1184797D01*
X-725246D01*
X-744461Y1189946D01*
X-761688Y1199892D01*
X-775754Y1213958D01*
X-785700Y1231185D01*
X-790848Y1250399D01*
X-791500Y1260345D01*
D01*
Y1006345D01*
D02*
G37*
G36*
X-537500D02*
X-385100D01*
Y1260345D01*
X-385752Y1250399D01*
X-390901Y1231185D01*
X-400847Y1213958D01*
X-414913Y1199892D01*
X-432140Y1189946D01*
X-451354Y1184797D01*
X-471246D01*
X-490461Y1189946D01*
X-507688Y1199892D01*
X-521754Y1213958D01*
X-531700Y1231185D01*
X-536848Y1250399D01*
X-537500Y1260345D01*
D01*
Y1006345D01*
D02*
G37*
G36*
X-283500D02*
X-131100D01*
Y1260345D01*
X-131752Y1250399D01*
X-136901Y1231185D01*
X-146847Y1213958D01*
X-160913Y1199892D01*
X-178140Y1189946D01*
X-197354Y1184797D01*
X-217246D01*
X-236461Y1189946D01*
X-253688Y1199892D01*
X-267754Y1213958D01*
X-277700Y1231185D01*
X-282848Y1250399D01*
X-283500Y1260345D01*
D01*
Y1006345D01*
D02*
G37*
G36*
X-29500D02*
X122900D01*
Y1260345D01*
X122248Y1250399D01*
X117099Y1231185D01*
X107153Y1213958D01*
X93087Y1199892D01*
X75860Y1189946D01*
X56646Y1184797D01*
X36754D01*
X17539Y1189946D01*
X312Y1199892D01*
X-13754Y1213958D01*
X-23700Y1231185D01*
X-28848Y1250399D01*
X-29500Y1260345D01*
D01*
Y1006345D01*
D02*
G37*
G36*
X224500D02*
X376900D01*
Y1260345D01*
X376248Y1250399D01*
X371099Y1231185D01*
X361153Y1213958D01*
X347087Y1199892D01*
X329860Y1189946D01*
X310646Y1184797D01*
X290754D01*
X271539Y1189946D01*
X254312Y1199892D01*
X240246Y1213958D01*
X230300Y1231185D01*
X225152Y1250399D01*
X224500Y1260345D01*
D01*
Y1006345D01*
D02*
G37*
G36*
X478500D02*
X630900D01*
Y1260345D01*
X630248Y1250399D01*
X625099Y1231185D01*
X615153Y1213958D01*
X601087Y1199892D01*
X583860Y1189946D01*
X564646Y1184797D01*
X544754D01*
X525539Y1189946D01*
X508312Y1199892D01*
X494246Y1213958D01*
X484300Y1231185D01*
X479152Y1250399D01*
X478500Y1260345D01*
D01*
Y1006345D01*
D02*
G37*
G36*
X732500D02*
X884900D01*
Y1260345D01*
X884248Y1250399D01*
X879099Y1231185D01*
X869153Y1213958D01*
X855087Y1199892D01*
X837860Y1189946D01*
X818646Y1184797D01*
X798754D01*
X779539Y1189946D01*
X762312Y1199892D01*
X748246Y1213958D01*
X738300Y1231185D01*
X733152Y1250399D01*
X732500Y1260345D01*
D01*
Y1006345D01*
D02*
G37*
G36*
X1138900Y-985655D02*
X986500D01*
Y-1239655D01*
X987152Y-1229709D01*
X992300Y-1210494D01*
X1002246Y-1193267D01*
X1016312Y-1179201D01*
X1033539Y-1169255D01*
X1052754Y-1164107D01*
X1072646D01*
X1091860Y-1169255D01*
X1109087Y-1179201D01*
X1123153Y-1193267D01*
X1133099Y-1210494D01*
X1138248Y-1229709D01*
X1138900Y-1239655D01*
D01*
Y-985655D01*
D02*
G37*
G36*
X1392900D02*
X1240500D01*
Y-1239655D01*
X1241152Y-1229709D01*
X1246300Y-1210494D01*
X1256246Y-1193267D01*
X1270312Y-1179201D01*
X1287539Y-1169255D01*
X1306754Y-1164107D01*
X1326646D01*
X1345860Y-1169255D01*
X1363087Y-1179201D01*
X1377153Y-1193267D01*
X1387099Y-1210494D01*
X1392248Y-1229709D01*
X1392900Y-1239655D01*
D01*
Y-985655D01*
D02*
G37*
G36*
X1646900D02*
X1494500D01*
Y-1239655D01*
X1495152Y-1229709D01*
X1500300Y-1210494D01*
X1510246Y-1193267D01*
X1524312Y-1179201D01*
X1541539Y-1169255D01*
X1560754Y-1164107D01*
X1580646D01*
X1599860Y-1169255D01*
X1617087Y-1179201D01*
X1631153Y-1193267D01*
X1641099Y-1210494D01*
X1646248Y-1229709D01*
X1646900Y-1239655D01*
D01*
Y-985655D01*
D02*
G37*
G36*
X1900900D02*
X1748500D01*
Y-1239655D01*
X1749152Y-1229709D01*
X1754300Y-1210494D01*
X1764246Y-1193267D01*
X1778312Y-1179201D01*
X1795539Y-1169255D01*
X1814754Y-1164107D01*
X1834646D01*
X1853860Y-1169255D01*
X1871087Y-1179201D01*
X1885153Y-1193267D01*
X1895099Y-1210494D01*
X1900248Y-1229709D01*
X1900900Y-1239655D01*
D01*
Y-985655D01*
D02*
G37*
G36*
X2154900D02*
X2002500D01*
Y-1239655D01*
X2003152Y-1229709D01*
X2008300Y-1210494D01*
X2018246Y-1193267D01*
X2032312Y-1179201D01*
X2049539Y-1169255D01*
X2068754Y-1164107D01*
X2088646D01*
X2107860Y-1169255D01*
X2125087Y-1179201D01*
X2139153Y-1193267D01*
X2149099Y-1210494D01*
X2154248Y-1229709D01*
X2154900Y-1239655D01*
D01*
Y-985655D01*
D02*
G37*
G36*
X2408900D02*
X2256500D01*
Y-1239655D01*
X2257152Y-1229709D01*
X2262300Y-1210494D01*
X2272246Y-1193267D01*
X2286312Y-1179201D01*
X2303539Y-1169255D01*
X2322754Y-1164107D01*
X2342646D01*
X2361860Y-1169255D01*
X2379087Y-1179201D01*
X2393153Y-1193267D01*
X2403099Y-1210494D01*
X2408248Y-1229709D01*
X2408900Y-1239655D01*
D01*
Y-985655D01*
D02*
G37*
G36*
X2662900D02*
X2510500D01*
Y-1239655D01*
X2511152Y-1229709D01*
X2516300Y-1210494D01*
X2526246Y-1193267D01*
X2540312Y-1179201D01*
X2557539Y-1169255D01*
X2576754Y-1164107D01*
X2596646D01*
X2615860Y-1169255D01*
X2633087Y-1179201D01*
X2647153Y-1193267D01*
X2657099Y-1210494D01*
X2662248Y-1229709D01*
X2662900Y-1239655D01*
D01*
Y-985655D01*
D02*
G37*
G36*
X2916900D02*
X2764500D01*
Y-1239655D01*
X2765152Y-1229709D01*
X2770300Y-1210494D01*
X2780246Y-1193267D01*
X2794312Y-1179201D01*
X2811539Y-1169255D01*
X2830754Y-1164107D01*
X2850646D01*
X2869860Y-1169255D01*
X2887087Y-1179201D01*
X2901153Y-1193267D01*
X2911099Y-1210494D01*
X2916248Y-1229709D01*
X2916900Y-1239655D01*
D01*
Y-985655D01*
D02*
G37*
G36*
X986500Y1006345D02*
X1138900D01*
Y1260345D01*
X1138248Y1250399D01*
X1133099Y1231185D01*
X1123153Y1213958D01*
X1109087Y1199892D01*
X1091860Y1189946D01*
X1072646Y1184797D01*
X1052754D01*
X1033539Y1189946D01*
X1016312Y1199892D01*
X1002246Y1213958D01*
X992300Y1231185D01*
X987152Y1250399D01*
X986500Y1260345D01*
D01*
Y1006345D01*
D02*
G37*
G36*
X1240500D02*
X1392900D01*
Y1260345D01*
X1392248Y1250399D01*
X1387099Y1231185D01*
X1377153Y1213958D01*
X1363087Y1199892D01*
X1345860Y1189946D01*
X1326646Y1184797D01*
X1306754D01*
X1287539Y1189946D01*
X1270312Y1199892D01*
X1256246Y1213958D01*
X1246300Y1231185D01*
X1241152Y1250399D01*
X1240500Y1260345D01*
D01*
Y1006345D01*
D02*
G37*
G36*
X1494500D02*
X1646900D01*
Y1260345D01*
X1646248Y1250399D01*
X1641099Y1231185D01*
X1631153Y1213958D01*
X1617087Y1199892D01*
X1599860Y1189946D01*
X1580646Y1184797D01*
X1560754D01*
X1541539Y1189946D01*
X1524312Y1199892D01*
X1510246Y1213958D01*
X1500300Y1231185D01*
X1495152Y1250399D01*
X1494500Y1260345D01*
D01*
Y1006345D01*
D02*
G37*
G36*
X1748500D02*
X1900900D01*
Y1260345D01*
X1900248Y1250399D01*
X1895099Y1231185D01*
X1885153Y1213958D01*
X1871087Y1199892D01*
X1853860Y1189946D01*
X1834646Y1184797D01*
X1814754D01*
X1795539Y1189946D01*
X1778312Y1199892D01*
X1764246Y1213958D01*
X1754300Y1231185D01*
X1749152Y1250399D01*
X1748500Y1260345D01*
D01*
Y1006345D01*
D02*
G37*
G36*
X2002500D02*
X2154900D01*
Y1260345D01*
X2154248Y1250399D01*
X2149099Y1231185D01*
X2139153Y1213958D01*
X2125087Y1199892D01*
X2107860Y1189946D01*
X2088646Y1184797D01*
X2068754D01*
X2049539Y1189946D01*
X2032312Y1199892D01*
X2018246Y1213958D01*
X2008300Y1231185D01*
X2003152Y1250399D01*
X2002500Y1260345D01*
D01*
Y1006345D01*
D02*
G37*
G36*
X2256500D02*
X2408900D01*
Y1260345D01*
X2408248Y1250399D01*
X2403099Y1231185D01*
X2393153Y1213958D01*
X2379087Y1199892D01*
X2361860Y1189946D01*
X2342646Y1184797D01*
X2322754D01*
X2303539Y1189946D01*
X2286312Y1199892D01*
X2272246Y1213958D01*
X2262300Y1231185D01*
X2257152Y1250399D01*
X2256500Y1260345D01*
D01*
Y1006345D01*
D02*
G37*
G36*
X2510500D02*
X2662900D01*
Y1260345D01*
X2662248Y1250399D01*
X2657099Y1231185D01*
X2647153Y1213958D01*
X2633087Y1199892D01*
X2615860Y1189946D01*
X2596646Y1184797D01*
X2576754D01*
X2557539Y1189946D01*
X2540312Y1199892D01*
X2526246Y1213958D01*
X2516300Y1231185D01*
X2511152Y1250399D01*
X2510500Y1260345D01*
D01*
Y1006345D01*
D02*
G37*
G36*
X2764500D02*
X2916900D01*
Y1260345D01*
X2916248Y1250399D01*
X2911099Y1231185D01*
X2901153Y1213958D01*
X2887087Y1199892D01*
X2869860Y1189946D01*
X2850646Y1184797D01*
X2830754D01*
X2811539Y1189946D01*
X2794312Y1199892D01*
X2780246Y1213958D01*
X2770300Y1231185D01*
X2765152Y1250399D01*
X2764500Y1260345D01*
D01*
Y1006345D01*
D02*
G37*
D34*
X-1388022Y287525D02*
Y612645D01*
X-1474382Y699005D02*
X-1388022Y612645D01*
X-1629322Y699005D02*
X-1474382D01*
X-1161962Y61465D02*
X-1095922D01*
X-1388022Y287525D02*
X-1161962Y61465D01*
X-1677582Y650745D02*
X-1629322Y699005D01*
X-796202Y-55375D02*
X-697142Y-154435D01*
X854798D01*
D35*
X-1342302Y-710695D02*
X-1338178D01*
X-1342302Y-964695D02*
X-1189902D01*
X-1342302D02*
Y-753875D01*
X-1339872Y-756305D01*
X-1204580D01*
X-1342302Y-753875D02*
Y-710695D01*
X-1857922Y320545D02*
X-1713142D01*
Y447545D01*
X-1342302Y-710695D02*
Y-583695D01*
X-1857360Y448108D02*
Y518775D01*
X-1857922Y447545D02*
X-1857360Y448108D01*
X-1857922Y320545D02*
Y447545D01*
D36*
X696519Y398965D02*
G03*
X716519Y378965I20000J0D01*
G01*
X696519Y427273D02*
G03*
X681327Y442465I-15192J0D01*
G01*
X610431D02*
G03*
X595239Y427273I0J-15192D01*
G01*
X575239Y378965D02*
G03*
X595239Y398965I0J20000D01*
G01*
X499019D02*
G03*
X519019Y378965I20000J0D01*
G01*
X499019Y483634D02*
G03*
X483827Y498826I-15192J0D01*
G01*
X412931D02*
G03*
X397739Y483634I0J-15192D01*
G01*
X382547Y201165D02*
G03*
X397739Y216357I0J15192D01*
G01*
X296459D02*
G03*
X311651Y201165I15192J0D01*
G01*
X296459Y541573D02*
G03*
X281267Y556765I-15192J0D01*
G01*
X210371D02*
G03*
X195179Y541573I0J-15192D01*
G01*
X179987Y201165D02*
G03*
X195179Y216357I0J15192D01*
G01*
X93899D02*
G03*
X109091Y201165I15192J0D01*
G01*
X93899Y541573D02*
G03*
X78707Y556765I-15192J0D01*
G01*
X7811D02*
G03*
X-7381Y541573I0J-15192D01*
G01*
X-22573Y201165D02*
G03*
X-7381Y216357I0J15192D01*
G01*
X-108661D02*
G03*
X-93469Y201165I15192J0D01*
G01*
X-108661Y541573D02*
G03*
X-123853Y556765I-15192J0D01*
G01*
X-194749D02*
G03*
X-209941Y541573I0J-15192D01*
G01*
X-229941Y378965D02*
G03*
X-209941Y398965I0J20000D01*
G01*
X921918Y749485D02*
G03*
X941918Y729485I20000J0D01*
G01*
X921918Y757954D02*
G03*
X906726Y773146I-15192J0D01*
G01*
X835830D02*
G03*
X820638Y757954I0J-15192D01*
G01*
X805446Y602485D02*
G03*
X820638Y617677I0J15192D01*
G01*
X719358D02*
G03*
X734550Y602485I15192J0D01*
G01*
X719358Y757954D02*
G03*
X704166Y773146I-15192J0D01*
G01*
X633271D02*
G03*
X618079Y757954I0J-15192D01*
G01*
X602887Y602485D02*
G03*
X618079Y617677I0J15192D01*
G01*
X516799D02*
G03*
X531991Y602485I15192J0D01*
G01*
X516799Y757954D02*
G03*
X501607Y773146I-15192J0D01*
G01*
X430711D02*
G03*
X415519Y757954I0J-15192D01*
G01*
X400327Y624865D02*
G03*
X415519Y640057I0J15192D01*
G01*
X314239D02*
G03*
X329431Y624865I15192J0D01*
G01*
X314239Y757954D02*
G03*
X299047Y773146I-15192J0D01*
G01*
X228151D02*
G03*
X212959Y757954I0J-15192D01*
G01*
X197767Y602485D02*
G03*
X212959Y617677I0J15192D01*
G01*
X111679D02*
G03*
X126871Y602485I15192J0D01*
G01*
X111679Y757954D02*
G03*
X96487Y773146I-15192J0D01*
G01*
X25591D02*
G03*
X10399Y757954I0J-15192D01*
G01*
X-4793Y682870D02*
G03*
X10399Y698062I0J15192D01*
G01*
X-90881D02*
G03*
X-75689Y682870I15192J0D01*
G01*
X-90881Y757954D02*
G03*
X-106073Y773146I-15192J0D01*
G01*
X-176969D02*
G03*
X-192161Y757954I0J-15192D01*
G01*
X-212161Y729485D02*
G03*
X-192161Y749485I0J20000D01*
G01*
X2186078Y403546D02*
G03*
X2206078Y423546I0J20000D01*
G01*
X2172370Y403546D02*
G03*
X2157178Y388354I0J-15192D01*
G01*
Y317458D02*
G03*
X2172370Y302266I15192J0D01*
G01*
X2252278Y287074D02*
G03*
X2237086Y302266I-15192J0D01*
G01*
Y200986D02*
G03*
X2252278Y216178I0J15192D01*
G01*
X2172370Y200986D02*
G03*
X2157178Y185794I0J-15192D01*
G01*
Y114898D02*
G03*
X2172370Y99706I15192J0D01*
G01*
X2252278Y84514D02*
G03*
X2237086Y99706I-15192J0D01*
G01*
Y-1574D02*
G03*
X2252278Y13618I0J15192D01*
G01*
X2094270Y-1574D02*
G03*
X2079078Y-16766I0J-15192D01*
G01*
Y-87661D02*
G03*
X2094270Y-102853I15192J0D01*
G01*
X2252278Y-118045D02*
G03*
X2237086Y-102853I-15192J0D01*
G01*
Y-204133D02*
G03*
X2252278Y-188941I0J15192D01*
G01*
X2094270Y-204133D02*
G03*
X2079078Y-219325I0J-15192D01*
G01*
Y-290221D02*
G03*
X2094270Y-305413I15192J0D01*
G01*
X2252278Y-320605D02*
G03*
X2237086Y-305413I-15192J0D01*
G01*
Y-406693D02*
G03*
X2252278Y-391501I0J15192D01*
G01*
X2094270Y-406693D02*
G03*
X2079078Y-421885I0J-15192D01*
G01*
Y-492781D02*
G03*
X2094270Y-507973I15192J0D01*
G01*
X2206078Y-527973D02*
G03*
X2186078Y-507973I-20000J0D01*
G01*
X40277Y-14895D02*
G03*
X20277Y5105I-20000J0D01*
G01*
X40277Y-71113D02*
G03*
X55469Y-86305I15192J0D01*
G01*
X126365D02*
G03*
X141557Y-71113I0J15192D01*
G01*
X156749Y132105D02*
G03*
X141557Y116913I0J-15192D01*
G01*
X242837D02*
G03*
X227645Y132105I-15192J0D01*
G01*
X242837Y-71113D02*
G03*
X258029Y-86305I15192J0D01*
G01*
X328925D02*
G03*
X344117Y-71113I0J15192D01*
G01*
X359309Y132105D02*
G03*
X344117Y116913I0J-15192D01*
G01*
X445397D02*
G03*
X430205Y132105I-15192J0D01*
G01*
X445397Y-71113D02*
G03*
X460589Y-86305I15192J0D01*
G01*
X531485D02*
G03*
X546677Y-71113I0J15192D01*
G01*
X561869Y132105D02*
G03*
X546677Y116913I0J-15192D01*
G01*
X647957D02*
G03*
X632765Y132105I-15192J0D01*
G01*
X647957Y-13440D02*
G03*
X663149Y-28632I15192J0D01*
G01*
X734045D02*
G03*
X749236Y-13440I0J15192D01*
G01*
X764428Y132105D02*
G03*
X749236Y116913I0J-15192D01*
G01*
X850516D02*
G03*
X835324Y132105I-15192J0D01*
G01*
X850516Y25105D02*
G03*
X870516Y5105I20000J0D01*
G01*
X46700Y-1239655D02*
Y-968725D01*
X16630Y-938654D02*
X46700Y-968725D01*
X-1301100Y307955D02*
X-1179070Y185925D01*
X-951142D02*
X-905422Y231645D01*
X-1179070Y185925D02*
X-951142D01*
X-1258482Y-129487D02*
Y46225D01*
X-1301100Y-172105D02*
X-1258482Y-129487D01*
X-1448982Y236725D02*
X-1258482Y46225D01*
X-1448982Y236725D02*
Y536177D01*
X-1502700Y589895D02*
X-1448982Y536177D01*
X-1301100Y307955D02*
Y589895D01*
X999578Y-596395D02*
X1316700Y-913517D01*
X283298Y-596395D02*
X999578D01*
X-537122Y-505239D02*
X-499400Y-542961D01*
Y-635985D02*
Y-542961D01*
X716519Y378965D02*
X768438D01*
X696519Y398965D02*
Y427273D01*
X610431Y442465D02*
X681327D01*
X595239Y398965D02*
Y427273D01*
X565238Y378965D02*
X575239D01*
X768438D02*
X1964778D01*
X519019D02*
X565238D01*
X499019Y398965D02*
Y483634D01*
X412931Y498826D02*
X483827D01*
X397739Y216357D02*
Y483634D01*
X311651Y201165D02*
X382547D01*
X296459Y216357D02*
Y541573D01*
X210371Y556765D02*
X281267D01*
X195179Y216357D02*
Y541573D01*
X109091Y201165D02*
X179987D01*
X93899Y216357D02*
Y541573D01*
X7811Y556765D02*
X78707D01*
X-7381Y216357D02*
Y541573D01*
X-93469Y201165D02*
X-22573D01*
X-108661Y216357D02*
Y541573D01*
X-194749Y556765D02*
X-123853D01*
X-209941Y398965D02*
Y541573D01*
X-239942Y378965D02*
X-229941D01*
X-270422D02*
X-239942D01*
X-392342Y500885D02*
X-270422Y378965D01*
X1014723Y729485D02*
X1022780Y721429D01*
X941918Y729485D02*
X1014723D01*
X921918Y749485D02*
Y757954D01*
X835830Y773146D02*
X906726D01*
X820638Y617677D02*
Y757954D01*
X734550Y602485D02*
X805446D01*
X719358Y617677D02*
Y757954D01*
X633271Y773146D02*
X704166D01*
X618079Y617677D02*
Y757954D01*
X531991Y602485D02*
X602887D01*
X516799Y617677D02*
Y757954D01*
X430711Y773146D02*
X501607D01*
X415519Y640057D02*
Y757954D01*
X329431Y624865D02*
X400327D01*
X314239Y640057D02*
Y757954D01*
X228151Y773146D02*
X299047D01*
X212959Y617677D02*
Y757954D01*
X126871Y602485D02*
X197767D01*
X111679Y617677D02*
Y757954D01*
X25591Y773146D02*
X96487D01*
X10399Y698062D02*
Y757954D01*
X-75689Y682870D02*
X-4793D01*
X-90881Y698062D02*
Y757954D01*
X-176969Y773146D02*
X-106073D01*
X-192161Y749485D02*
Y757954D01*
X-222162Y729485D02*
X-212161D01*
X1022780Y721429D02*
X1070698Y673511D01*
X-305982Y729485D02*
X-222162D01*
X1070698Y582165D02*
X1169758Y483105D01*
X1070698Y582165D02*
Y673511D01*
X1169758Y483105D02*
X2066378D01*
X2099398Y450086D01*
X2046058Y46225D02*
X2099398Y99565D01*
Y450086D01*
X1847938Y46225D02*
X2046058D01*
X1964778Y378965D02*
X2033358Y310385D01*
Y236725D02*
Y310385D01*
X2185758Y483105D02*
X2206078Y462785D01*
Y423546D02*
Y462785D01*
X2172370Y403546D02*
X2186078D01*
X2157178Y317458D02*
Y388354D01*
X2172370Y302266D02*
X2237086D01*
X2252278Y216178D02*
Y287074D01*
X2172370Y200986D02*
X2237086D01*
X2157178Y114898D02*
Y185794D01*
X2172370Y99706D02*
X2237086D01*
X2252278Y13618D02*
Y84514D01*
X2094270Y-1574D02*
X2237086D01*
X2079078Y-87661D02*
Y-16766D01*
X2094270Y-102853D02*
X2237086D01*
X2252278Y-188941D02*
Y-118045D01*
X2094270Y-204133D02*
X2237086D01*
X2079078Y-290221D02*
Y-219325D01*
X2094270Y-305413D02*
X2237086D01*
X2252278Y-391501D02*
Y-320605D01*
X2094270Y-406693D02*
X2237086D01*
X2079078Y-492781D02*
Y-421885D01*
X2094270Y-507973D02*
X2186078D01*
X2206078Y-537975D02*
Y-527973D01*
X2112098Y556765D02*
X2185758Y483105D01*
X2206078Y-565915D02*
Y-537975D01*
X1210398Y556765D02*
X2112098D01*
X1164678Y602485D02*
X1210398Y556765D01*
X1164678Y602485D02*
Y724405D01*
X2040978Y-596395D02*
X2175598D01*
X2206078Y-565915D01*
X2015578Y-570995D02*
X2040978Y-596395D01*
X1911438Y-47755D02*
X1980018D01*
X2015578Y-83315D01*
Y-570995D02*
Y-83315D01*
X1902102Y-380495D02*
X1911438D01*
X1876702Y-405895D02*
X1902102Y-380495D01*
X1766658Y-405895D02*
X1876702D01*
X1423758Y-62995D02*
X1766658Y-405895D01*
X1049898Y-62995D02*
X1423758D01*
X981798Y5105D02*
X1049898Y-62995D01*
X-26582Y5105D02*
X20277D01*
X40277Y-71113D02*
Y-14895D01*
X55469Y-86305D02*
X126365D01*
X141557Y-71113D02*
Y116913D01*
X156749Y132105D02*
X227645D01*
X242837Y-71113D02*
Y116913D01*
X258029Y-86305D02*
X328925D01*
X344117Y-71113D02*
Y116913D01*
X359309Y132105D02*
X430205D01*
X445397Y-71113D02*
Y116913D01*
X460589Y-86305D02*
X531485D01*
X546677Y-71113D02*
Y116913D01*
X561869Y132105D02*
X632765D01*
X647957Y-13440D02*
Y116913D01*
X663149Y-28632D02*
X734045D01*
X749236Y-13440D02*
Y116913D01*
X764428Y132105D02*
X835324D01*
X850516Y25105D02*
Y116913D01*
X870516Y5105D02*
X981798D01*
X-292802D02*
X-26582D01*
X-468542Y180846D02*
X-292802Y5105D01*
X-468542Y180846D02*
Y551685D01*
X-392342Y627885D01*
X1822538Y-271275D02*
X1911438D01*
X1789518Y-238255D02*
X1822538Y-271275D01*
X1789518Y-238255D02*
Y-12195D01*
X1847938Y46225D01*
X-332733Y-643304D02*
X-161202Y-814835D01*
X440778D01*
X554700Y-928757D01*
X-341542Y-611635D02*
X-332733Y-620444D01*
Y-643304D02*
Y-620444D01*
X946238Y-657355D02*
X1062700Y-773817D01*
X257898Y-657355D02*
X946238D01*
X1062700Y-1239655D02*
Y-773817D01*
X165731Y-565188D02*
X257898Y-657355D01*
X221960Y-535057D02*
X283298Y-596395D01*
X221960Y-535057D02*
Y-467495D01*
X94611Y-565188D02*
X165731D01*
X92909Y-563486D02*
X94611Y-565188D01*
X1316700Y-1239655D02*
Y-913517D01*
X-435522Y-621795D02*
X-181522Y-875795D01*
X224878D02*
X300700Y-951617D01*
X-181522Y-875795D02*
X224878D01*
X554700Y-1239655D02*
Y-928757D01*
X-435522Y-621795D02*
Y-548155D01*
X300700Y-1239655D02*
Y-951617D01*
X-435522Y-548155D02*
X-405064Y-517697D01*
Y-505239D01*
X-196730Y-938654D02*
X16630D01*
X-499400Y-635985D02*
X-196730Y-938654D01*
D38*
X2337780Y1140645D02*
Y1158425D01*
Y913461D02*
Y1140645D01*
X-1705412Y848975D02*
X-968360D01*
X-1857360Y697028D02*
X-1705412Y848975D01*
X-1857360Y569575D02*
Y697028D01*
X-712382Y541525D02*
X-399962Y853945D01*
X2061298D01*
X-712382Y234185D02*
Y541525D01*
X-1148700Y-202132D02*
X-712382Y234185D01*
X-1148700Y-756305D02*
Y-202132D01*
X2141134Y-814835D02*
X2333078D01*
X2081618Y-874351D02*
X2141134Y-814835D01*
X2081618Y-1137415D02*
Y-874351D01*
X2333078Y-814835D02*
Y785365D01*
Y-1099315D02*
Y-814835D01*
X2278264Y840179D02*
X2333078Y785365D01*
X2278264Y840179D02*
Y853945D01*
X2337780Y913461D01*
X2061298Y853945D02*
X2278264D01*
X2061298D02*
X2071458Y864105D01*
Y1156205D01*
X2333078Y-1099315D02*
X2348318Y-1114555D01*
X2337780Y1158425D02*
X2342860Y1163505D01*
X2332700Y1135565D02*
X2337780Y1140645D01*
X-715300Y908491D02*
Y1260345D01*
X-968360Y848975D02*
X-774816D01*
X-715300Y908491D01*
X-969300Y-1239655D02*
Y-839185D01*
X-1052180Y-756305D02*
X-969300Y-839185D01*
X-1148700Y-756305D02*
X-1052180D01*
X-969300Y1260345D02*
X-968360Y1259406D01*
Y848975D02*
Y1259406D01*
D39*
X205055Y-314455D02*
G03*
X184677Y-334833I0J-20378D01*
G01*
X169428Y-377955D02*
G03*
X184677Y-362706I0J15249D01*
G01*
X83019D02*
G03*
X98267Y-377955I15249J0D01*
G01*
X83019Y-309383D02*
G03*
X67770Y-294135I-15249J0D01*
G01*
X-3391D02*
G03*
X-18640Y-309383I0J-15249D01*
G01*
X-33888Y-377955D02*
G03*
X-18640Y-362706I0J15249D01*
G01*
X-120298D02*
G03*
X-105050Y-377955I15249J0D01*
G01*
X-120298Y-309383D02*
G03*
X-135547Y-294135I-15249J0D01*
G01*
X-206708D02*
G03*
X-221957Y-309383I0J-15249D01*
G01*
X-237205Y-377955D02*
G03*
X-221957Y-362706I0J15249D01*
G01*
X-323615D02*
G03*
X-308366Y-377955I15249J0D01*
G01*
X-323615Y-334833D02*
G03*
X-343993Y-314455I-20378J0D01*
G01*
X123775Y-215336D02*
G03*
X144154Y-235715I20378J0D01*
G01*
X123775Y-212572D02*
G03*
X108527Y-197324I-15249J0D01*
G01*
X37366D02*
G03*
X22117Y-212572I0J-15249D01*
G01*
X6868Y-253756D02*
G03*
X22117Y-238508I0J15249D01*
G01*
X-79541D02*
G03*
X-64293Y-253756I15249J0D01*
G01*
X-79541Y-212572D02*
G03*
X-94790Y-197324I-15249J0D01*
G01*
X-165951D02*
G03*
X-181200Y-212572I0J-15249D01*
G01*
X-196448Y-253756D02*
G03*
X-181200Y-238508I0J15249D01*
G01*
X-282858D02*
G03*
X-267610Y-253756I15249J0D01*
G01*
X-282858Y-212572D02*
G03*
X-298107Y-197324I-15249J0D01*
G01*
X-369268D02*
G03*
X-384517Y-212572I0J-15249D01*
G01*
X-399765Y-253756D02*
G03*
X-384517Y-238508I0J15249D01*
G01*
X-486175D02*
G03*
X-470926Y-253756I15249J0D01*
G01*
X-486175Y-212572D02*
G03*
X-501424Y-197324I-15249J0D01*
G01*
X-572585D02*
G03*
X-587833Y-212572I0J-15249D01*
G01*
X-608212Y-235715D02*
G03*
X-587833Y-215336I0J20378D01*
G01*
X-732761Y-395455D02*
G03*
X-712382Y-375077I0J20378D01*
G01*
X-849534Y-395455D02*
G03*
X-864782Y-410704I0J-15249D01*
G01*
Y-481865D02*
G03*
X-849534Y-497114I15249J0D01*
G01*
X-686721Y-512362D02*
G03*
X-701970Y-497114I-15249J0D01*
G01*
Y-598772D02*
G03*
X-686721Y-583523I0J15249D01*
G01*
X-849534Y-598772D02*
G03*
X-864782Y-614021I0J-15249D01*
G01*
Y-685182D02*
G03*
X-849534Y-700430I15249J0D01*
G01*
X-712382Y-720809D02*
G03*
X-732761Y-700430I-20378J0D01*
G01*
X295998Y-314455D02*
X318858Y-337315D01*
X205055Y-314455D02*
X295998D01*
X184677Y-362706D02*
Y-334833D01*
X98267Y-377955D02*
X169428D01*
X83019Y-362706D02*
Y-309383D01*
X-3391Y-294135D02*
X67770D01*
X-18640Y-362706D02*
Y-309383D01*
X-105050Y-377955D02*
X-33888D01*
X-120298Y-362706D02*
Y-309383D01*
X-206708Y-294135D02*
X-135547D01*
X-221957Y-362706D02*
Y-309383D01*
X-308366Y-377955D02*
X-237205D01*
X-323615Y-362706D02*
Y-334833D01*
X-455842Y-314455D02*
X-343993D01*
X318858Y-337315D02*
X377278Y-395735D01*
X-565062Y-314455D02*
X-455842D01*
X-623482Y-372875D02*
X-565062Y-314455D01*
X-623482Y-657355D02*
Y-372875D01*
Y-657355D02*
X-598082Y-682755D01*
X144154Y-235715D02*
X214718D01*
X123775Y-215336D02*
Y-212572D01*
X37366Y-197324D02*
X108527D01*
X22117Y-238508D02*
Y-212572D01*
X-64293Y-253756D02*
X6868D01*
X-79541Y-238508D02*
Y-212572D01*
X-165951Y-197324D02*
X-94790D01*
X-181200Y-238508D02*
Y-212572D01*
X-267610Y-253756D02*
X-196448D01*
X-282858Y-238508D02*
Y-212572D01*
X-369268Y-197324D02*
X-298107D01*
X-384517Y-238508D02*
Y-212572D01*
X-470926Y-253756D02*
X-399765D01*
X-486175Y-238508D02*
Y-212572D01*
X-572585Y-197324D02*
X-501424D01*
X-587833Y-215336D02*
Y-212572D01*
X-618402Y-235715D02*
X-608212D01*
X214718D02*
X313778D01*
X-686982D02*
X-618402D01*
X-712382Y-375077D02*
Y-289055D01*
X-849534Y-395455D02*
X-732761D01*
X-864782Y-481865D02*
Y-410704D01*
X-849534Y-497114D02*
X-701970D01*
X-686721Y-583523D02*
Y-512362D01*
X-849534Y-598772D02*
X-701970D01*
X-864782Y-685182D02*
Y-614021D01*
X-849534Y-700430D02*
X-732761D01*
X-712382Y-730999D02*
Y-720809D01*
Y-289055D02*
Y-261115D01*
Y-764035D02*
Y-730999D01*
Y-764035D02*
X-664438Y-811979D01*
X-712382Y-261115D02*
X-686982Y-235715D01*
X-664438Y-811979D02*
X-600622D01*
X313778Y-235715D02*
X415378Y-337315D01*
X948778D01*
X-598082Y-682755D02*
X-564247Y-716590D01*
X948778Y-337315D02*
X1172298Y-560835D01*
X-523607Y-716590D02*
X-519342Y-720855D01*
X-564247Y-716590D02*
X-523607D01*
X1172298Y-560835D02*
X1840318D01*
X1911438Y-489715D01*
X925918Y-395735D02*
X1144358Y-614175D01*
X1871142D02*
X1899082Y-642115D01*
X1144358Y-614175D02*
X1871142D01*
X1899082Y-642115D02*
X1911438D01*
X377278Y-395735D02*
X925918D01*
D41*
X-2091192Y429965D02*
D03*
Y-434035D02*
D03*
D42*
X-2509192Y429965D02*
D03*
Y-434035D02*
D03*
D43*
X-2141192Y-291034D02*
D03*
Y286966D02*
D03*
D44*
X2825840Y-538061D02*
D03*
Y261939D02*
D03*
D45*
X2586700Y1260345D02*
D03*
Y-1239655D02*
D03*
X2840700D02*
D03*
Y1260345D02*
D03*
X-969300D02*
D03*
X-715300D02*
D03*
X-969300Y-1239655D02*
D03*
X2078700Y1260345D02*
D03*
Y-1239655D02*
D03*
X2332700Y1260345D02*
D03*
Y-1239655D02*
D03*
X554700D02*
D03*
X808700D02*
D03*
X300700D02*
D03*
X1062700D02*
D03*
X1316700D02*
D03*
X46700D02*
D03*
X-207300D02*
D03*
X-461300D02*
D03*
X-715300D02*
D03*
X1570700D02*
D03*
X1824700D02*
D03*
Y1260345D02*
D03*
X1570700D02*
D03*
X-461300D02*
D03*
X1316700D02*
D03*
X1062700D02*
D03*
X808700D02*
D03*
X-207300D02*
D03*
X554700D02*
D03*
X46700D02*
D03*
X300700D02*
D03*
D46*
X-58420Y-693420D02*
D03*
X-193040Y-632460D02*
D03*
X-261620Y-566420D02*
D03*
X-642620Y66040D02*
D03*
X-581660Y259080D02*
D03*
X1682840Y-817561D02*
D03*
X-1794422Y-868175D02*
D03*
X1990178Y648205D02*
D03*
X-1553122Y975865D02*
D03*
X-1677582Y650745D02*
D03*
X-1095922Y61465D02*
D03*
X-796202Y-55375D02*
D03*
X1258658Y-497625D02*
D03*
X1385658D02*
D03*
X623658Y-263655D02*
D03*
X1545678Y-692915D02*
D03*
X1911438Y-642115D02*
D03*
X854798Y-154435D02*
D03*
X-537122Y-395735D02*
D03*
Y-505239D02*
D03*
X-1342302Y-964695D02*
D03*
X-966382Y-637035D02*
D03*
X-1794422Y-995175D02*
D03*
X-905422Y231645D02*
D03*
X47078Y630425D02*
D03*
X825500Y-50800D02*
D03*
X1449158Y127986D02*
D03*
X-305982Y729485D02*
D03*
X1258658Y-388115D02*
D03*
X1385658D02*
D03*
X1911438Y-380495D02*
D03*
Y-271275D02*
D03*
Y-47755D02*
D03*
X2033358Y236725D02*
D03*
X557240Y-467495D02*
D03*
X1911438Y-489715D02*
D03*
X1322158Y38605D02*
D03*
X1449158D02*
D03*
X1195158D02*
D03*
X1068158D02*
D03*
X-2147482Y963165D02*
D03*
X-2302422Y726945D02*
D03*
X-2241462Y-631955D02*
D03*
X-966382Y-510035D02*
D03*
Y-383035D02*
D03*
X-1926502Y-634495D02*
D03*
Y-748795D02*
D03*
Y-520195D02*
D03*
X-1189902Y-964695D02*
D03*
X-1342302Y-710695D02*
D03*
Y-583695D02*
D03*
X-1643380Y-595020D02*
D03*
X-1661160Y-427380D02*
D03*
Y-300380D02*
D03*
X-1857922Y320545D02*
D03*
X-1713142D02*
D03*
Y447545D02*
D03*
X-1857922D02*
D03*
X-1573442Y-1071375D02*
D03*
X-1766482Y-93475D02*
D03*
X-1769022Y208785D02*
D03*
X92909Y-563486D02*
D03*
X-1301100Y589895D02*
D03*
X-1502700D02*
D03*
X-519342Y-720855D02*
D03*
X-600622Y-811979D02*
D03*
X-1301100Y-172105D02*
D03*
X-392342Y627885D02*
D03*
Y500885D02*
D03*
X-405064Y-505239D02*
D03*
X-341542Y-611635D02*
D03*
X221960Y-467495D02*
D03*
X684240Y-729115D02*
D03*
X1164678Y724405D02*
D03*
X387438Y561845D02*
D03*
D47*
X-1204580Y-756305D02*
X-1148700D01*
X-1857360Y518775D02*
Y569575D01*
%TF.MD5,57afe813b1436cc619adb4ae4aa54712*%
M02*
