%TF.GenerationSoftware,Altium Limited,Altium Designer,25.4.2 (15)*%
G04 Layer_Color=0*
%FSLAX45Y45*%
%MOMM*%
%TF.SameCoordinates,D428E1E4-D561-4EBD-83AA-0298DF20FA0A*%
%TF.FilePolarity,Positive*%
%TF.FileFunction,Plated,1,4,PTH,Drill*%
%TF.Part,Single*%
G01*
G75*
%TA.AperFunction,ComponentDrill*%
%ADD57O,1.70000X0.60000*%
%ADD58O,1.40000X0.60000*%
%ADD59C,0.81280*%
%TA.AperFunction,ViaDrill,NotFilled*%
%ADD60C,0.25400*%
D57*
X-2091192Y429965D02*
D03*
Y-434035D02*
D03*
D58*
X-2509192Y429965D02*
D03*
Y-434035D02*
D03*
D59*
X2586700Y1260345D02*
D03*
Y-1239655D02*
D03*
X2840700D02*
D03*
Y1260345D02*
D03*
X-969300D02*
D03*
X-715300D02*
D03*
X-969300Y-1239655D02*
D03*
X2078700Y1260345D02*
D03*
Y-1239655D02*
D03*
X2332700Y1260345D02*
D03*
Y-1239655D02*
D03*
X554700D02*
D03*
X808700D02*
D03*
X300700D02*
D03*
X1062700D02*
D03*
X1316700D02*
D03*
X46700D02*
D03*
X-207300D02*
D03*
X-461300D02*
D03*
X-715300D02*
D03*
X1570700D02*
D03*
X1824700D02*
D03*
Y1260345D02*
D03*
X1570700D02*
D03*
X-461300D02*
D03*
X1316700D02*
D03*
X1062700D02*
D03*
X808700D02*
D03*
X-207300D02*
D03*
X554700D02*
D03*
X46700D02*
D03*
X300700D02*
D03*
D60*
X-58420Y-693420D02*
D03*
X-193040Y-632460D02*
D03*
X-261620Y-566420D02*
D03*
X-642620Y66040D02*
D03*
X-581660Y259080D02*
D03*
X1682840Y-817561D02*
D03*
X-1794422Y-868175D02*
D03*
X1990178Y648205D02*
D03*
X-1553122Y975865D02*
D03*
X-1677582Y650745D02*
D03*
X-1095922Y61465D02*
D03*
X-796202Y-55375D02*
D03*
X1258658Y-497625D02*
D03*
X1385658D02*
D03*
X623658Y-263655D02*
D03*
X1545678Y-692915D02*
D03*
X1911438Y-642115D02*
D03*
X854798Y-154435D02*
D03*
X-537122Y-395735D02*
D03*
Y-505239D02*
D03*
X-1342302Y-964695D02*
D03*
X-966382Y-637035D02*
D03*
X-1794422Y-995175D02*
D03*
X-905422Y231645D02*
D03*
X47078Y630425D02*
D03*
X825500Y-50800D02*
D03*
X1449158Y127986D02*
D03*
X-305982Y729485D02*
D03*
X1258658Y-388115D02*
D03*
X1385658D02*
D03*
X1911438Y-380495D02*
D03*
Y-271275D02*
D03*
Y-47755D02*
D03*
X2033358Y236725D02*
D03*
X557240Y-467495D02*
D03*
X1911438Y-489715D02*
D03*
X1322158Y38605D02*
D03*
X1449158D02*
D03*
X1195158D02*
D03*
X1068158D02*
D03*
X-2147482Y963165D02*
D03*
X-2302422Y726945D02*
D03*
X-2241462Y-631955D02*
D03*
X-966382Y-510035D02*
D03*
Y-383035D02*
D03*
X-1926502Y-634495D02*
D03*
Y-748795D02*
D03*
Y-520195D02*
D03*
X-1189902Y-964695D02*
D03*
X-1342302Y-710695D02*
D03*
Y-583695D02*
D03*
X-1643380Y-595020D02*
D03*
X-1661160Y-427380D02*
D03*
Y-300380D02*
D03*
X-1857922Y320545D02*
D03*
X-1713142D02*
D03*
Y447545D02*
D03*
X-1857922D02*
D03*
X-1573442Y-1071375D02*
D03*
X-1766482Y-93475D02*
D03*
X-1769022Y208785D02*
D03*
X92909Y-563486D02*
D03*
X-1301100Y589895D02*
D03*
X-1502700D02*
D03*
X-519342Y-720855D02*
D03*
X-600622Y-811979D02*
D03*
X-1301100Y-172105D02*
D03*
X-392342Y627885D02*
D03*
Y500885D02*
D03*
X-405064Y-505239D02*
D03*
X-341542Y-611635D02*
D03*
X221960Y-467495D02*
D03*
X684240Y-729115D02*
D03*
X1164678Y724405D02*
D03*
X387438Y561845D02*
D03*
%TF.MD5,bb4af7dbffeeff7fbba7266961ea58ec*%
M02*
